<svg xmlns="http://www.w3.org/2000/svg" xmlns:xlink="http://www.w3.org/1999/xlink" width="420.88" height="54.53" viewBox="0 0 420.88 54.53"><defs><style>.cls-1{fill:none;}.cls-2{fill:url(#GTAI_Grün-Verlauf_CMYK);}.cls-3{fill:url(#GTAI_Grün-Verlauf_CMYK-2);}.cls-4{fill:url(#GTAI_Grün-Verlauf_CMYK-3);}.cls-5{fill:url(#Unbenannter_Verlauf_2);}.cls-6{fill:url(#GTAI_Grün-Verlauf_CMYK-4);}.cls-7{fill:url(#GTAI_Grün-Verlauf_CMYK-5);}.cls-8{fill:url(#GTAI_Grün-Verlauf_CMYK-6);}.cls-9{fill:url(#GTAI_Grün-Verlauf_CMYK-7);}.cls-10{fill:url(#Grauverlauf);}.cls-11{fill:url(#GTAI_Grün-Verlauf_CMYK-8);}.cls-12{fill:url(#Grauverlauf-2);}.cls-13{fill:url(#GTAI_Grün-Verlauf_CMYK-9);}.cls-14{fill:url(#Grauverlauf-3);}.cls-15{fill:url(#GTAI_Grün-Verlauf_CMYK-10);}.cls-16{fill:url(#Grauverlauf-4);}.cls-17{fill:url(#GTAI_Grün-Verlauf_CMYK-11);}.cls-18{fill:url(#Grauverlauf-5);}.cls-19{fill:url(#GTAI_Grün-Verlauf_CMYK-12);}.cls-20{fill:url(#Grauverlauf-6);}.cls-21{fill:url(#GTAI_Grün-Verlauf_CMYK-13);}.cls-22{fill:url(#GTAI_Grün-Verlauf_CMYK-14);}.cls-23{fill:url(#GTAI_Grün-Verlauf_CMYK-15);}.cls-24{fill:url(#GTAI_Grün-Verlauf_CMYK-16);}.cls-25{fill:url(#GTAI_Grün-Verlauf_CMYK-17);}.cls-26{fill:url(#GTAI_Grün-Verlauf_CMYK-18);}.cls-27{fill:url(#GTAI_Grün-Verlauf_CMYK-19);}.cls-28{fill:url(#GTAI_Grün-Verlauf_CMYK-20);}.cls-29{fill:url(#GTAI_Grün-Verlauf_CMYK-21);}.cls-30{fill:url(#GTAI_Grün-Verlauf_CMYK-22);}.cls-31{fill:url(#GTAI_Grün-Verlauf_CMYK-23);}.cls-32{fill:url(#Unbenannter_Verlauf_3);}.cls-33{fill:url(#GTAI_Grün-Verlauf_CMYK-24);}.cls-34{fill:url(#GTAI_Grün-Verlauf_CMYK-25);}.cls-35{fill:url(#GTAI_Grün-Verlauf_CMYK-26);}.cls-36{fill:url(#GTAI_Grün-Verlauf_CMYK-27);}.cls-37{fill:url(#GTAI_Grün-Verlauf_CMYK-28);}.cls-38{fill:url(#GTAI_Grün-Verlauf_CMYK-29);}.cls-39{fill:#6a6a69;}</style><linearGradient id="GTAI_Grün-Verlauf_CMYK" x1="-15.86" y1="35.31" x2="265.69" y2="-20.11" gradientUnits="userSpaceOnUse"><stop offset="0.05" stop-color="#3f7e40"/><stop offset="0.4" stop-color="#71a940"/><stop offset="0.95" stop-color="#bcd359"/></linearGradient><linearGradient id="GTAI_Grün-Verlauf_CMYK-2" x1="-14.97" y1="43.55" x2="266.58" y2="-11.87" xlink:href="#GTAI_Grün-Verlauf_CMYK"/><linearGradient id="GTAI_Grün-Verlauf_CMYK-3" x1="-12.14" y1="54.21" x2="269.41" y2="-1.22" xlink:href="#GTAI_Grün-Verlauf_CMYK"/><linearGradient id="Unbenannter_Verlauf_2" x1="-10.78" y1="64.81" x2="270.77" y2="9.39" gradientUnits="userSpaceOnUse"><stop offset="0.05" stop-color="#3f7e40"/><stop offset="0.55" stop-color="#71a940"/><stop offset="0.95" stop-color="#bcd359"/></linearGradient><linearGradient id="GTAI_Grün-Verlauf_CMYK-4" x1="-8.65" y1="71.97" x2="272.91" y2="16.55" xlink:href="#GTAI_Grün-Verlauf_CMYK"/><linearGradient id="GTAI_Grün-Verlauf_CMYK-5" x1="-14.14" y1="44.07" x2="267.41" y2="-11.35" xlink:href="#GTAI_Grün-Verlauf_CMYK"/><linearGradient id="GTAI_Grün-Verlauf_CMYK-6" x1="-6.33" y1="83.75" x2="275.22" y2="28.33" xlink:href="#GTAI_Grün-Verlauf_CMYK"/><linearGradient id="GTAI_Grün-Verlauf_CMYK-7" x1="-20.89" y1="13.47" x2="260.66" y2="-41.96" xlink:href="#GTAI_Grün-Verlauf_CMYK"/><linearGradient id="Grauverlauf" x1="-0.66" y1="3.91" x2="297.3" y2="3.91" gradientUnits="userSpaceOnUse"><stop offset="0" stop-color="#919090"/><stop offset="0.24" stop-color="#9d9d9d"/><stop offset="0.9" stop-color="#bcbcbd"/></linearGradient><linearGradient id="GTAI_Grün-Verlauf_CMYK-8" x1="-18.64" y1="24.91" x2="262.91" y2="-30.51" xlink:href="#GTAI_Grün-Verlauf_CMYK"/><linearGradient id="Grauverlauf-2" x1="-0.66" y1="7.31" x2="297.3" y2="7.31" xlink:href="#Grauverlauf"/><linearGradient id="GTAI_Grün-Verlauf_CMYK-9" x1="-14.67" y1="41.35" x2="266.88" y2="-14.08" xlink:href="#GTAI_Grün-Verlauf_CMYK"/><linearGradient id="Grauverlauf-3" x1="0.13" y1="14.15" x2="298.09" y2="14.15" xlink:href="#Grauverlauf"/><linearGradient id="GTAI_Grün-Verlauf_CMYK-10" x1="-13.51" y1="50.97" x2="268.04" y2="-4.45" xlink:href="#GTAI_Grün-Verlauf_CMYK"/><linearGradient id="Grauverlauf-4" x1="-0.66" y1="16.33" x2="297.3" y2="16.33" xlink:href="#Grauverlauf"/><linearGradient id="GTAI_Grün-Verlauf_CMYK-11" x1="-11.92" y1="55.36" x2="269.64" y2="-0.07" xlink:href="#GTAI_Grün-Verlauf_CMYK"/><linearGradient id="Grauverlauf-5" x1="0.13" y1="15.35" x2="298.09" y2="15.35" xlink:href="#Grauverlauf"/><linearGradient id="GTAI_Grün-Verlauf_CMYK-12" x1="-12.25" y1="57.36" x2="269.3" y2="1.93" xlink:href="#GTAI_Grün-Verlauf_CMYK"/><linearGradient id="Grauverlauf-6" x1="-0.66" y1="8.24" x2="297.3" y2="8.24" xlink:href="#Grauverlauf"/><linearGradient id="GTAI_Grün-Verlauf_CMYK-13" x1="-11.31" y1="62.17" x2="270.25" y2="6.74" xlink:href="#GTAI_Grün-Verlauf_CMYK"/><linearGradient id="GTAI_Grün-Verlauf_CMYK-14" x1="357.43" y1="107.76" x2="42.63" y2="50.12" xlink:href="#GTAI_Grün-Verlauf_CMYK"/><linearGradient id="GTAI_Grün-Verlauf_CMYK-15" x1="-12.3" y1="57.14" x2="269.26" y2="1.71" xlink:href="#GTAI_Grün-Verlauf_CMYK"/><linearGradient id="GTAI_Grün-Verlauf_CMYK-16" x1="355.84" y1="116.44" x2="41.04" y2="58.8" xlink:href="#GTAI_Grün-Verlauf_CMYK"/><linearGradient id="GTAI_Grün-Verlauf_CMYK-17" x1="-10.75" y1="64.96" x2="270.8" y2="9.54" xlink:href="#GTAI_Grün-Verlauf_CMYK"/><linearGradient id="GTAI_Grün-Verlauf_CMYK-18" x1="358.41" y1="102.43" x2="43.6" y2="44.79" xlink:href="#GTAI_Grün-Verlauf_CMYK"/><linearGradient id="GTAI_Grün-Verlauf_CMYK-19" x1="-8.91" y1="74.35" x2="272.64" y2="18.92" xlink:href="#GTAI_Grün-Verlauf_CMYK"/><linearGradient id="GTAI_Grün-Verlauf_CMYK-20" x1="361.33" y1="86.46" x2="46.53" y2="28.82" xlink:href="#GTAI_Grün-Verlauf_CMYK"/><linearGradient id="GTAI_Grün-Verlauf_CMYK-21" x1="-9.65" y1="70.59" x2="271.9" y2="15.16" xlink:href="#GTAI_Grün-Verlauf_CMYK"/><linearGradient id="GTAI_Grün-Verlauf_CMYK-22" x1="360.28" y1="92.24" x2="45.47" y2="34.6" xlink:href="#GTAI_Grün-Verlauf_CMYK"/><linearGradient id="GTAI_Grün-Verlauf_CMYK-23" x1="-8.28" y1="77.54" x2="273.27" y2="22.12" xlink:href="#GTAI_Grün-Verlauf_CMYK"/><linearGradient id="Unbenannter_Verlauf_3" x1="362.58" y1="79.67" x2="47.77" y2="22.03" gradientUnits="userSpaceOnUse"><stop offset="0.05" stop-color="#3f7e40"/><stop offset="0.48" stop-color="#71a940"/><stop offset="0.95" stop-color="#bcd359"/></linearGradient><linearGradient id="GTAI_Grün-Verlauf_CMYK-24" x1="-6.22" y1="84.28" x2="275.33" y2="28.85" xlink:href="#GTAI_Grün-Verlauf_CMYK"/><linearGradient id="GTAI_Grün-Verlauf_CMYK-25" x1="364.13" y1="75.84" x2="49.32" y2="18.2" xlink:href="#GTAI_Grün-Verlauf_CMYK"/><linearGradient id="GTAI_Grün-Verlauf_CMYK-26" x1="-5.01" y1="94.12" x2="276.54" y2="38.7" xlink:href="#GTAI_Grün-Verlauf_CMYK"/><linearGradient id="GTAI_Grün-Verlauf_CMYK-27" x1="363.74" y1="73.3" x2="48.94" y2="15.66" xlink:href="#GTAI_Grün-Verlauf_CMYK"/><linearGradient id="GTAI_Grün-Verlauf_CMYK-28" x1="-3.2" y1="103.34" x2="278.35" y2="47.92" xlink:href="#GTAI_Grün-Verlauf_CMYK"/><linearGradient id="GTAI_Grün-Verlauf_CMYK-29" x1="364.39" y1="69.77" x2="49.58" y2="12.13" xlink:href="#GTAI_Grün-Verlauf_CMYK"/></defs><title>ABG_Logo_V2</title><g id="GTAI"><path class="cls-1" d="M132,18.34a6.47,6.47,0,0,0-2.56-5.53c-1.77-1.14-4.54-1.14-5.68-1.14h-6.53V25h6.53a14.21,14.21,0,0,0,4.47-.56,5,5,0,0,0,1.21-.58A6.49,6.49,0,0,0,132,18.34Z" transform="translate(-0.79 -0.31)"/><polygon class="cls-1" points="247.22 14.06 241.33 32.94 252.76 32.94 247.22 14.06"/><polygon class="cls-1" points="25.42 14.06 19.52 32.94 30.96 32.94 25.42 14.06"/><path class="cls-2" d="M17.19,43.48H34.8l1.58,5.35L51.2,47,38.08,7.56,17.85,3.76,1.17,53.14l13.55-1.66Zm9-29.11,5.54,18.88H20.32Z" transform="translate(-0.79 -0.31)"/><polygon class="cls-3" points="73.56 35.5 92.02 35.5 92.02 24.28 73.56 24.28 73.56 14.05 58.79 11.28 58.79 45.68 73.56 43.88 73.56 35.5"/><path class="cls-4" d="M117.23,35.81h6.25l1.1,2.23,14.07-1.72-1.68-3a16,16,0,0,0,7-5.91l-15.76-3a14.21,14.21,0,0,1-4.47.56h-6.53V22.4L103,19.74V40.68l14.2-1.74Z" transform="translate(-0.79 -0.31)"/><polygon class="cls-5" points="155.06 29.33 155.06 33.9 169.83 32.1 155.06 29.33"/><path class="cls-6" d="M195.33,27.43c0-.37,0-.73,0-1.09L179.8,30.26a33.08,33.08,0,0,0,.45,3.78l17,2.88A21.78,21.78,0,0,1,195.33,27.43Z" transform="translate(-0.79 -0.31)"/><path class="cls-7" d="M207.4.31c-1.15,0-2.25,0-3.32.13h6.81C209.8.36,208.63.31,207.4.31Z" transform="translate(-0.79 -0.31)"/><path class="cls-8" d="M239,43.48H256.6l1.09,3.66L274,49.9l-13.3-40-25.22,6.35-8.67,25.68,12.08,2Zm9-29.11,5.54,18.88H242.12Z" transform="translate(-0.79 -0.31)"/><polygon class="cls-9" points="35.07 0.57 18.03 0.57 17.06 3.45 37.29 7.25 35.07 0.57"/><polygon class="cls-10" points="35.07 0.57 18.03 0.57 17.06 3.45 37.29 7.25 35.07 0.57"/><polygon class="cls-11" points="73.56 11.79 94.29 11.79 94.29 0.57 58.79 0.57 58.79 11.28 73.56 14.05 73.56 11.79"/><polygon class="cls-12" points="73.56 11.79 94.29 11.79 94.29 0.57 58.79 0.57 58.79 11.28 73.56 14.05 73.56 11.79"/><path class="cls-13" d="M117.23,11.67h6.53c1.14,0,3.91,0,5.68,1.14A6.47,6.47,0,0,1,132,18.34a6.49,6.49,0,0,1-2.56,5.54,5,5,0,0,1-1.21.58l15.76,3a17.63,17.63,0,0,0,2.49-9.57c0-5.4-1.7-10.08-6.25-13.28C135,.88,128.31.88,123.62.88H103V19.74l14.2,2.66Z" transform="translate(-0.79 -0.31)"/><path class="cls-14" d="M117.23,11.67h6.53c1.14,0,3.91,0,5.68,1.14A6.47,6.47,0,0,1,132,18.34a6.49,6.49,0,0,1-2.56,5.54,5,5,0,0,1-1.21.58l15.76,3a17.63,17.63,0,0,0,2.49-9.57c0-5.4-1.7-10.08-6.25-13.28C135,.88,128.31.88,123.62.88H103V19.74l14.2,2.66Z" transform="translate(-0.79 -0.31)"/><polygon class="cls-15" points="169.83 0.57 155.06 0.57 155.06 29.33 169.83 32.1 169.83 0.57"/><polygon class="cls-16" points="169.83 0.57 155.06 0.57 155.06 29.33 169.83 32.1 169.83 0.57"/><path class="cls-17" d="M209.39,11.1a29.37,29.37,0,0,1,8.94,1.56h.57V1.73a44.86,44.86,0,0,0-8-1.29h-6.81c-16.72,1.34-24.37,12.86-24.37,27.28,0,.86,0,1.7.09,2.54l15.56-3.92C195.68,17.89,199.72,11.1,209.39,11.1Z" transform="translate(-0.79 -0.31)"/><path class="cls-18" d="M209.39,11.1a29.37,29.37,0,0,1,8.94,1.56h.57V1.73a44.86,44.86,0,0,0-8-1.29h-6.81c-16.72,1.34-24.37,12.86-24.37,27.28,0,.86,0,1.7.09,2.54l15.56-3.92C195.68,17.89,199.72,11.1,209.39,11.1Z" transform="translate(-0.79 -0.31)"/><polygon class="cls-19" points="256.88 0.57 239.84 0.57 234.65 15.92 259.87 9.57 256.88 0.57"/><polygon class="cls-20" points="256.88 0.57 239.84 0.57 234.65 15.92 259.87 9.57 256.88 0.57"/><polygon class="cls-21" points="37.2 53.96 52.82 53.96 50.41 46.71 35.59 48.52 37.2 53.96"/><polygon class="cls-22" points="37.2 53.96 52.82 53.96 50.41 46.71 35.59 48.52 37.2 53.96"/><polygon class="cls-23" points="13.06 53.96 13.93 51.17 0.38 52.83 0 53.96 13.06 53.96"/><polygon class="cls-24" points="13.06 53.96 13.93 51.17 0.38 52.83 0 53.96 13.06 53.96"/><polygon class="cls-25" points="73.56 53.96 73.56 43.88 58.79 45.68 58.79 53.96 73.56 53.96"/><polygon class="cls-26" points="73.56 53.96 73.56 43.88 58.79 45.68 58.79 53.96 73.56 53.96"/><polygon class="cls-27" points="131.78 53.96 147.96 53.96 137.86 36.01 123.79 37.73 131.78 53.96"/><polygon class="cls-28" points="131.78 53.96 147.96 53.96 137.86 36.01 123.79 37.73 131.78 53.96"/><polygon class="cls-29" points="116.44 53.96 116.44 38.63 102.24 40.37 102.24 53.96 116.44 53.96"/><polygon class="cls-30" points="116.44 53.96 116.44 38.63 102.24 40.37 102.24 53.96 116.44 53.96"/><polygon class="cls-31" points="169.83 53.96 169.83 32.1 155.06 33.9 155.06 53.96 169.83 53.96"/><polygon class="cls-32" points="169.83 53.96 169.83 32.1 155.06 33.9 155.06 53.96 169.83 53.96"/><path class="cls-33" d="M207.4,54.84a46.3,46.3,0,0,0,11.5-1.42V42.48h-.57a29.79,29.79,0,0,1-8.94,1.57c-6.17,0-10-2.86-12.13-7.13l-17-2.88C182.4,46.17,191.09,54.84,207.4,54.84Z" transform="translate(-0.79 -0.31)"/><path class="cls-34" d="M207.4,54.84a46.3,46.3,0,0,0,11.5-1.42V42.48h-.57a29.79,29.79,0,0,1-8.94,1.57c-6.17,0-10-2.86-12.13-7.13l-17-2.88C182.4,46.17,191.09,54.84,207.4,54.84Z" transform="translate(-0.79 -0.31)"/><polygon class="cls-35" points="234.87 53.96 238.06 43.64 225.98 41.6 221.8 53.96 234.87 53.96"/><polygon class="cls-36" points="234.87 53.96 238.06 43.64 225.98 41.6 221.8 53.96 234.87 53.96"/><polygon class="cls-37" points="259 53.96 274.63 53.96 273.17 49.58 256.89 46.83 259 53.96"/><polygon class="cls-38" points="259 53.96 274.63 53.96 273.17 49.58 256.89 46.83 259 53.96"/><path class="cls-39" d="M300,1a9.69,9.69,0,0,1,4.88.81,4.6,4.6,0,0,1,2.35,4.34c0,4.2-3.47,4.57-3.47,4.57s4.42.25,4.42,5.32a5.34,5.34,0,0,1-2.69,5,10.46,10.46,0,0,1-5.37,1h-6.44V1Zm-2.07,8.35h1.91A3.63,3.63,0,0,0,301.78,9a2.22,2.22,0,0,0,1-2.1,2.29,2.29,0,0,0-1-2.18,3.77,3.77,0,0,0-1.82-.31h-2Zm0,9.32h2.38a4.07,4.07,0,0,0,2.24-.48,2.48,2.48,0,0,0,1.12-2.43,2.36,2.36,0,0,0-1.12-2.38,4.38,4.38,0,0,0-2.29-.45h-2.33Z" transform="translate(-0.79 -0.31)"/><path class="cls-39" d="M316.37,1V14.92c0,2.32.7,4,3.47,4s3.47-1.68,3.47-4V1h3.92V14.13c0,1.91-.06,4.15-1.48,5.88s-3.42,2.41-6.22,2.41-4.84-.84-6.1-2.38c-1.4-1.71-1.49-3.92-1.49-5.88V1Z" transform="translate(-0.79 -0.31)"/><path class="cls-39" d="M343,5h-.23a14.05,14.05,0,0,0-4-.76c-2,0-2.86.87-2.86,2,0,1.82,2.32,2.63,4.51,4,1.9,1.21,3.5,2.75,3.5,5.77,0,4.17-3.08,6.27-7.62,6.27a14.31,14.31,0,0,1-4.76-.78V17.86h.2a13.85,13.85,0,0,0,4.39,1c2.05,0,3.22-1,3.22-2.38,0-2.07-2.6-3-4.87-4.45-1.76-1.15-3.13-2.55-3.13-5.27,0-3.67,2.46-5.93,7-5.93a17.83,17.83,0,0,1,4.57.64Z" transform="translate(-0.79 -0.31)"/><path class="cls-39" d="M352.29,1V22.06h-4.42V1Z" transform="translate(-0.79 -0.31)"/><path class="cls-39" d="M361.42,1l8.06,12.94V1h3.84V22.06H369.4L361,9V22.06h-3.81V1Z" transform="translate(-0.79 -0.31)"/><path class="cls-39" d="M390,1V4.59h-7.44V9.35h6.27v3.58h-6.27v5.54h7.81v3.59H378.19V1Z" transform="translate(-0.79 -0.31)"/><path class="cls-39" d="M405.21,5H405a14,14,0,0,0-4-.76c-2,0-2.86.87-2.86,2,0,1.82,2.33,2.63,4.51,4,1.9,1.21,3.5,2.75,3.5,5.77,0,4.17-3.08,6.27-7.61,6.27a14.33,14.33,0,0,1-4.77-.78V17.86h.2a13.87,13.87,0,0,0,4.4,1c2,0,3.22-1,3.22-2.38,0-2.07-2.61-3-4.87-4.45-1.77-1.15-3.14-2.55-3.14-5.27,0-3.67,2.46-5.93,7.05-5.93a17.83,17.83,0,0,1,4.57.64Z" transform="translate(-0.79 -0.31)"/><path class="cls-39" d="M420.72,5h-.22a14.07,14.07,0,0,0-4-.76c-2,0-2.86.87-2.86,2,0,1.82,2.33,2.63,4.51,4,1.91,1.21,3.5,2.75,3.5,5.77,0,4.17-3.08,6.27-7.61,6.27a14.23,14.23,0,0,1-4.76-.78V17.86h.19a13.87,13.87,0,0,0,4.4,1c2,0,3.22-1,3.22-2.38,0-2.07-2.61-3-4.87-4.45-1.77-1.15-3.14-2.55-3.14-5.27,0-3.67,2.46-5.93,7.06-5.93a17.8,17.8,0,0,1,4.56.64Z" transform="translate(-0.79 -0.31)"/><path class="cls-39" d="M308.89,42.6V53.3a19.25,19.25,0,0,1-6.16,1c-6.55,0-9.91-3.78-9.91-10.59,0-7,3.55-11,10.55-11a19.9,19.9,0,0,1,4.9.61V37h-.22a14.8,14.8,0,0,0-4.51-.75c-4,0-6.16,2-6.16,7.19s2.05,7.45,5.29,7.45a7.63,7.63,0,0,0,2.13-.31V46.13h-2.88V42.6Z" transform="translate(-0.79 -0.31)"/><path class="cls-39" d="M317.68,33V46.92c0,2.32.7,4,3.47,4s3.48-1.68,3.48-4V33h3.92V46.13c0,1.91-.06,4.15-1.49,5.88s-3.42,2.41-6.21,2.41S316,53.58,314.74,52c-1.4-1.71-1.48-3.92-1.48-5.88V33Z" transform="translate(-0.79 -0.31)"/><path class="cls-39" d="M337.84,33V54.06h-4.42V33Z" transform="translate(-0.79 -0.31)"/><path class="cls-39" d="M348.48,33a12.82,12.82,0,0,1,6.69,1.32c2.22,1.28,3.95,3.72,3.95,9.18,0,5.21-1.6,7.87-4,9.27a13,13,0,0,1-6.61,1.29h-5.77V33Zm-1.34,17.53H349a6.11,6.11,0,0,0,3.3-.67c1.65-1,2.24-3,2.24-6.3s-.59-5.32-2.3-6.36a6,6,0,0,0-3.24-.67h-1.82Z" transform="translate(-0.79 -0.31)"/><path class="cls-39" d="M374.94,33v3.59h-7.45v4.76h6.28v3.58h-6.28v5.54h7.82v3.59H363.13V33Z" transform="translate(-0.79 -0.31)"/></g></svg>