<svg xmlns="http://www.w3.org/2000/svg" xmlns:xlink="http://www.w3.org/1999/xlink" width="232.336" height="232.336" viewBox="0 0 232.336 232.336"><defs><style>.a{fill:none;opacity:0.552;}.b{fill:url(#a);}.c{fill:url(#b);}.d{fill:url(#c);}.e{fill:#626261;}</style><linearGradient id="a" x1="-0.048" y1="-4.784" x2="-0.044" y2="-4.784" gradientUnits="objectBoundingBox"><stop offset="0" stop-color="#f7a600"/><stop offset="0.04" stop-color="#f7a600"/><stop offset="0.97" stop-color="#fc0"/><stop offset="1" stop-color="#fc0"/></linearGradient><linearGradient id="b" x1="-0.048" y1="-5.335" x2="-0.044" y2="-5.335" gradientUnits="objectBoundingBox"><stop offset="0" stop-color="#e94c16"/><stop offset="0.15" stop-color="#e94c16"/><stop offset="0.84" stop-color="#f9b000"/><stop offset="0.98" stop-color="#ef7c00"/><stop offset="1" stop-color="#ef7c00"/></linearGradient><linearGradient id="c" x1="-0.1" y1="-7.723" x2="-0.096" y2="-7.723" gradientUnits="objectBoundingBox"><stop offset="0" stop-color="#888887"/><stop offset="0.9" stop-color="#b5b5b6"/><stop offset="1" stop-color="#b5b5b6"/></linearGradient></defs><g transform="translate(-12.246 -303.847)"><path class="a" d="M0,0H232.336V232.336H0Z" transform="translate(12.246 303.847)"/><path class="b" d="M12.247,459.415c0,5.19,1.327,9.16,3.939,11.8h0c2.6,2.631,6.5,3.964,11.6,3.964h0a36.675,36.675,0,0,0,9.348-1.3h0V457.744H26.2v5.623H29.97v6.113l-.341.03c-.045,0-1.1.095-1.848.095h0a5.959,5.959,0,0,1-5.33-2.685h0c-1.143-1.745-1.7-4.29-1.7-7.782h0c0-3.606.613-6.031,1.924-7.629h0c1.383-1.685,3.522-2.47,6.732-2.47h0a30.56,30.56,0,0,1,6.7.861h0V443.86a39.732,39.732,0,0,0-7.116-.677h0c-11.11,0-16.744,5.459-16.744,16.233m84.495-15.907H92.7v31.256h8.088V443.508Zm-27.184,0-9.042,31.256H67.4l1.51-5.819H78.57l1.421,5.819h8.466l-8.951-31.256Zm4.338,6.324,3.319,13.724H70.3Zm-34.045-6.324v6.229h6.887v25.027h8.091V449.737h6.883v-6.229Z" transform="translate(0 0)"/><path class="c" d="M92.7,450.607v19.1l8.088,1.956V450.607Zm-23.789,0-6.266,21.662L85.1,467.9l-4.952-17.288Zm4.987,4.085,3.319,13.724H70.3Zm-34.045-4.085v3.99h6.887v20.769l8.091-1.577V454.6h6.883v-3.99H39.851Zm-21.483,0c-4.068,2.6-6.121,7.167-6.121,13.668h0c0,5.19,1.327,9.16,3.939,11.8h0a13.687,13.687,0,0,0,7.9,3.7h0l13.045-2.541V462.6H26.2v5.623H29.97v6.113l-.341.03c-.045,0-1.1.095-1.848.095h0a5.959,5.959,0,0,1-5.33-2.685h0c-1.143-1.745-1.7-4.29-1.7-7.782h0c0-3.606.613-6.031,1.924-7.629h0c1.383-1.685,3.522-2.47,6.732-2.47h0a30.564,30.564,0,0,1,6.7.861h0v-4.152H18.368Z" transform="translate(0 -4.86)"/><path class="d" d="M24.424,447.261l9.521,2.183a12.792,12.792,0,0,1,3.436-.405h0a30.56,30.56,0,0,1,6.7.861h0V443.86a39.726,39.726,0,0,0-7.116-.677h0q-8.334,0-12.538,4.079m80.289-3.753h-4.044v17.1l8.088-2.6v-14.5h-4.044Zm-27.184,0-4.322,14.941,6.042,1.385,2.618-10,2.718,11.227L93.061,463l-5.584-19.494Zm-29.707,0v6.229h6.887v4.469l8.091,1.855v-6.324h6.883v-6.229Z" transform="translate(-7.971 0)"/><path class="e" d="M325.51,470.822v4.359h-2.567v-11.85h3.945a5.23,5.23,0,0,1,3.065.671,3.362,3.362,0,0,1,1.344,2.961,3.419,3.419,0,0,1-1.894,3.358l2.427,4.86h-2.892l-2-4.359Zm0-2.133h1.327a2.208,2.208,0,0,0,1.257-.261,1.826,1.826,0,0,0,.515-1.413,1.6,1.6,0,0,0-.5-1.275,2.029,2.029,0,0,0-1.188-.293H325.51Zm12.726-17.3v4.357h-2.567V443.9h3.943a5.23,5.23,0,0,1,3.065.673,3.356,3.356,0,0,1,1.346,2.961,3.422,3.422,0,0,1-1.9,3.358l2.429,4.857h-2.892l-2-4.357Zm0-2.135h1.324a2.23,2.23,0,0,0,1.26-.259,1.839,1.839,0,0,0,.516-1.413,1.6,1.6,0,0,0-.5-1.275,2.025,2.025,0,0,0-1.188-.293h-1.411Zm-19.906,0v2.135H319.9V453.7a4.625,4.625,0,0,1-1.137.153c-1.756,0-2.86-1.324-2.86-4.081,0-2.789,1.137-3.874,3.395-3.874a9.279,9.279,0,0,1,2.567.395H322v-2.187a12.208,12.208,0,0,0-2.789-.326c-4.064,0-6.08,2.254-6.08,6.182,0,3.807,1.9,5.942,5.666,5.942a11.715,11.715,0,0,0,3.583-.587v-6.061Zm7.39-5.358v11.85h7.042v-2.17h-4.391V450.7h3.514v-2.17h-3.514v-2.463h4.184V443.9Zm21.343,0v11.85h2.288V447.07l2.672,8.179h2.271l2.653-8.179v8.679h2.584V443.9h-3.41l-2.757,7.957-2.877-7.957Zm-6.753,31.282-.572-2.1h-3.923l-.585,2.1h-2.36l3.565-11.85h3.117l3.531,11.85h-2.774Zm-3.908-4.128h2.769l-1.357-5.412Zm32.5-15.3-.574-2.094H364.4l-.584,2.094h-2.36l3.565-11.85h3.117l3.531,11.85Zm-3.91-4.126h2.769l-1.357-5.412ZM373.7,443.9v11.85H376v-7.044l4.616,7.044h2.358V443.9h-2.308v6.96l-4.409-6.96Zm11.147,0,3.5,7.51v4.34h2.67v-4.409l3.477-7.441h-2.429l-2.1,4.737-2.1-4.737ZM312.7,463.331v2.2h2.757v9.646h2.688v-9.646H320.9v-2.2Zm35.742,0a7.755,7.755,0,0,1,3.824.742c1.307.742,2.237,2.187,2.237,5.131,0,3.033-.981,4.512-2.288,5.252a7.669,7.669,0,0,1-3.772.725h-3.376v-11.85Zm-.707,9.73h.984a3.486,3.486,0,0,0,1.773-.36c.9-.535,1.206-1.618,1.206-3.427,0-1.859-.326-2.927-1.258-3.462a3.355,3.355,0,0,0-1.721-.362h-.984v7.612Zm9.378-9.73v11.85h7.044v-2.17h-4.391v-2.877h3.511v-2.17h-3.511V465.5h4.184v-2.17Zm20.5,11.85-1.033-1.016a4.625,4.625,0,0,1-3.408,1.24c-2.48,0-3.807-1.24-3.807-3.153,0-1.566.878-2.463,2.342-3.117a4.2,4.2,0,0,1-1.445-3c0-1.618,1.066-3,3.445-3,2.338,0,3.32,1.327,3.32,2.772,0,1.5-1.05,2.414-2.273,3.24l1.93,1.827a7.2,7.2,0,0,0,.516-2.086h2.342a8.057,8.057,0,0,1-1.359,3.634l2.358,2.515v.138h-2.927Zm-2.172-2.258-2.545-2.537a2.029,2.029,0,0,0-1.048,1.73,1.531,1.531,0,0,0,1.708,1.477,3.231,3.231,0,0,0,1.885-.671m-1.82-4.883a2.549,2.549,0,0,0,1.38-2,1.229,1.229,0,1,0-2.457.069,2.621,2.621,0,0,0,1.076,1.935m12.3,7.142h2.67v-11.85h-2.67v11.85Zm6.186-11.85v11.85h2.308v-7.044l4.616,7.044h2.36v-11.85h-2.308v6.958l-4.409-6.958Zm11.089,0,3.568,11.85h2.823l3.649-11.85h-2.36l-2.5,8.785-2.342-8.785H403.2Zm11.951,0v11.85h7.044v-2.17H417.8v-2.877h3.514v-2.17H417.8V465.5h4.184v-2.17h-6.837Zm16.082.261a10.339,10.339,0,0,0-2.634-.365c-2.69,0-4.083,1.309-4.083,3.41a3.126,3.126,0,0,0,1.447,2.757c1.342.981,3.048,1.43,3.048,2.6,0,.723-.638,1.221-1.738,1.221a8.2,8.2,0,0,1-2.532-.55h-.121v2.187a8.769,8.769,0,0,0,2.754.431c2.67,0,4.391-1.223,4.391-3.583a3.547,3.547,0,0,0-1.859-3.186c-1.206-.792-2.633-1.24-2.633-2.224,0-.567.5-1,1.549-1a8.308,8.308,0,0,1,2.273.431h.138v-2.133Zm10.027-.261v2.2H438.5v9.646h-2.687v-9.646h-2.754v-2.2h8.2Z" transform="translate(-196.674 -0.392)"/></g></svg>