<svg xmlns="http://www.w3.org/2000/svg" width="232.336" height="237" viewBox="0 0 232.336 237"><defs><style>.a{fill:none;opacity:0.552;}.b{fill:#fff;}.c{fill:#fc0;}.d{fill:red;}</style></defs><g transform="translate(20)"><path class="a" d="M0,0H232.336V232.336H0Z" transform="translate(-20 4.664)"/><g transform="translate(-1)"><path class="b" d="M0,0H194.175V200H0Z"/></g><g transform="translate(25.729 23.993)"><g transform="translate(0.343)"><path d="M29.3,22.443a3.505,3.505,0,0,0-1.485-.343c-1.485,0-2.856.914-2.856,3.428,0,2.4,1.142,3.542,2.741,3.542a4.259,4.259,0,0,0,1.371-.229v-2.4l-.685-.114a.112.112,0,0,1-.114-.114c0-.114.114-.229.114-.343h2.741v.114c0,.229-.114.343-.457.457l-.228.114v2.4a4.19,4.19,0,0,1-2.97.914c-2.056,0-3.769-1.257-3.769-4.227A4.119,4.119,0,0,1,28.04,21.3a3.972,3.972,0,0,1,2.284.571c0,.343.114,1.143.114,1.143,0,.343-.114.571-.457.571h-.228Z" transform="translate(-23.7 -20.957)"/><path d="M32.071,26.585c0,1.485.685,2.171,1.713,2.171a2.252,2.252,0,0,0,1.485-.571.866.866,0,0,1,.228.457c0,.343-.8,1.028-2.17,1.028-1.485,0-2.627-.8-2.627-2.971s1.256-3.2,2.627-3.2a1.865,1.865,0,0,1,2.056,2.057c0,.343-.114.686-.114,1.028h-3.2Zm2.056-.571a4.949,4.949,0,0,0,.114-.571c0-.686-.228-1.257-.914-1.257s-1.142.571-1.256,1.714h2.056Z" transform="translate(-22.705 -20.644)"/><path d="M39.155,24.656H37.67v4.456l.8.114a.112.112,0,0,1,.114.114,1.151,1.151,0,0,1-.114.343H35.614v-.114a.3.3,0,0,1,.343-.343l.457-.114V24.656H35.5v-.114c0-.229.114-.343.343-.457l.571-.114v-.114c0-1.942,1.142-2.856,2.17-2.856.571,0,.8.229.8.686a.712.712,0,0,1-.343.571,1.305,1.305,0,0,0-.8-.343c-.571,0-.685.343-.685,1.028v1.143h1.6Z" transform="translate(-22.022 -21)"/><path d="M44.811,26.741a2.906,2.906,0,0,1-2.97,3.085A2.645,2.645,0,0,1,39.1,26.856a2.906,2.906,0,0,1,2.97-3.085A2.645,2.645,0,0,1,44.811,26.741Zm-3.883-3.77a.686.686,0,1,1,.685-.686Q41.442,22.971,40.928,22.971Zm-.457,3.885c0,1.6.685,2.285,1.485,2.285.914,0,1.6-.686,1.6-2.285s-.685-2.4-1.6-2.4C41.042,24.571,40.471,25.256,40.471,26.856ZM43.1,22.971a.658.658,0,0,1-.685-.686A.606.606,0,0,1,43.1,21.6a.658.658,0,0,1,.685.686Q43.612,22.971,43.1,22.971Z" transform="translate(-21.51 -20.914)"/><path d="M46.742,24.643h0c.343-.457.685-1.143,1.485-1.143.571,0,.8.229.8.686a.873.873,0,0,1-.228.571,2.253,2.253,0,0,0-.8-.229,1.337,1.337,0,0,0-1.256.571v3.656l.914.114a.112.112,0,0,1,.114.114,1.151,1.151,0,0,1-.114.343H44.8v-.114a.3.3,0,0,1,.343-.343l.457-.114V24.3l-.8-.114v-.114c0-.229.114-.343.457-.343l1.6-.114Z" transform="translate(-20.699 -20.644)"/><path d="M54.14,29.1l.914.114v.114c0,.229-.114.343-.457.343l-1.6.114v-.8h0a2.034,2.034,0,0,1-1.713.8c-1.142,0-2.284-.8-2.284-2.856a2.959,2.959,0,0,1,3.084-3.2,6.439,6.439,0,0,1,.8.114V21.786l-.8-.114v-.114c0-.229.114-.343.457-.343l1.6-.114Zm-1.256-4.113a1.777,1.777,0,0,0-1.028-.343c-1.028,0-1.713.686-1.713,2.285s.685,2.171,1.485,2.171a2.207,2.207,0,0,0,1.256-.457V24.985Z" transform="translate(-20.102 -20.986)"/><path d="M56.171,26.585c0,1.485.685,2.171,1.713,2.171a2.252,2.252,0,0,0,1.485-.571.866.866,0,0,1,.228.457c0,.343-.8,1.028-2.17,1.028-1.485,0-2.627-.8-2.627-2.971s1.256-3.2,2.627-3.2a1.865,1.865,0,0,1,2.056,2.057c0,.343-.114.686-.114,1.028h-3.2Zm2.056-.571a4.95,4.95,0,0,0,.114-.571c0-.686-.228-1.257-.914-1.257s-1.142.571-1.256,1.714h2.056Z" transform="translate(-19.277 -20.644)"/><path d="M61.642,24.643h0c.343-.457.685-1.143,1.485-1.143.571,0,.8.229.8.686a.873.873,0,0,1-.228.571,2.253,2.253,0,0,0-.8-.229,1.337,1.337,0,0,0-1.256.571v3.656l.914.114a.112.112,0,0,1,.114.114,1.151,1.151,0,0,1-.114.343H59.7v-.114a.3.3,0,0,1,.343-.343l.457-.114V24.3l-.8-.114v-.114c0-.229.114-.343.457-.343l1.6-.114Z" transform="translate(-18.581 -20.644)"/><path d="M67.455,24.5h-1.6v3.542c0,.571.114,1.028.8,1.028a1.378,1.378,0,0,0,.914-.343.42.42,0,0,1,.114.343c0,.114-.457.686-1.485.686-1.142,0-1.485-.686-1.485-1.6v-3.77H63.8v-.114c0-.229.114-.343.343-.457l.571-.114.228-1.6h.914v1.6h1.828Z" transform="translate(-17.998 -20.843)"/><path d="M75.04,29.1l.914.114v.114c0,.229-.114.343-.457.343l-1.6.114v-.8h0a2.034,2.034,0,0,1-1.713.8c-1.142,0-2.284-.8-2.284-2.856a2.959,2.959,0,0,1,3.084-3.2,6.439,6.439,0,0,1,.8.114V21.786l-.8-.114v-.114c0-.229.114-.343.457-.343l1.6-.114Zm-1.256-4.113a1.777,1.777,0,0,0-1.028-.343c-1.028,0-1.713.686-1.713,2.285s.685,2.171,1.485,2.171a2.207,2.207,0,0,0,1.256-.457Z" transform="translate(-17.13 -20.986)"/><path d="M81.1,28.741l.914.114v.114c0,.229-.114.343-.457.343l-1.6.114v-.8h0a2.245,2.245,0,0,1-1.828.914c-1.256,0-1.828-.8-1.828-2.171V24.286l-.8-.114v-.114c0-.229.114-.343.457-.343l1.6-.114v3.77c0,1.143.571,1.371,1.142,1.371a1.474,1.474,0,0,0,1.256-.571V24.4l-.8-.114v-.114c0-.229.114-.343.457-.343l1.6-.114v5.027Z" transform="translate(-16.334 -20.629)"/><path d="M83.642,24.643h0c.343-.457.685-1.143,1.485-1.143.571,0,.8.229.8.686a.873.873,0,0,1-.228.571,2.253,2.253,0,0,0-.8-.229,1.337,1.337,0,0,0-1.256.571v3.656l.914.114a.112.112,0,0,1,.114.114,1.151,1.151,0,0,1-.114.343H81.7v-.114a.3.3,0,0,1,.343-.343l.457-.114V24.3l-.8-.114v-.114c0-.229.114-.343.457-.343l1.6-.114Z" transform="translate(-15.452 -20.644)"/><path d="M88.627,24.271c-.8,0-1.485.571-1.485,2.171,0,1.485.571,2.4,1.713,2.4a1.712,1.712,0,0,0,1.371-.571.866.866,0,0,1,.228.457c0,.343-.685,1.028-1.942,1.028-1.6,0-2.513-1.028-2.513-2.971A2.847,2.847,0,0,1,88.97,23.7c1.371,0,1.6.686,1.6,1.028s-.114.571-.571.686C89.655,24.843,89.427,24.271,88.627,24.271Z" transform="translate(-14.841 -20.615)"/><path d="M92.484,24.77h0a2.141,2.141,0,0,1,1.828-.914c1.142,0,1.828.686,1.828,2.057v3.2l.685.114a.112.112,0,0,1,.114.114,1.151,1.151,0,0,1-.114.343H94.083v-.114a.3.3,0,0,1,.343-.343l.343-.114V26.027c0-1.028-.571-1.371-1.142-1.371a1.712,1.712,0,0,0-1.371.571V29l.685.114a.112.112,0,0,1,.114.114,1.151,1.151,0,0,1-.114.343H90.2v-.114a.3.3,0,0,1,.343-.343L91,29V21.686l-.8-.114v-.114c0-.229.114-.343.457-.343l1.6-.114v3.77Z" transform="translate(-14.243 -21)"/><path d="M97.7,24.985a.764.764,0,0,1-.8-.686.8.8,0,1,1,1.6,0A.834.834,0,0,1,97.7,24.985Zm0,4.684a.764.764,0,0,1-.8-.686.8.8,0,1,1,1.6,0A.98.98,0,0,1,97.7,29.67Z" transform="translate(-13.291 -20.644)"/></g><g transform="translate(0 128.078)"><path d="M27.855,140.384c0,.457.228.571.343.571.228,0,.457-.114.457-.229a.42.42,0,0,1,.114.343c0,.114-.343.571-1.142.571a.91.91,0,0,1-1.028-.8h0a1.743,1.743,0,0,1-1.6.914,1.5,1.5,0,0,1-1.6-1.6c0-1.257,1.371-1.714,2.741-1.714h.343v-.571c0-1.143-.343-1.485-1.028-1.485a2.324,2.324,0,0,0-.571.114,2.729,2.729,0,0,0-.228,1.028h-.228c-.457,0-.685-.228-.685-.571,0-.8,1.028-1.257,2.056-1.257,1.371,0,1.942.686,1.942,2.057v2.628Zm-1.485-1.371c-.914,0-1.485.343-1.485,1.028a.781.781,0,0,0,.8.8,1.311,1.311,0,0,0,1.028-.571V138.9Z" transform="translate(-23.4 -132.729)"/><path d="M34,140.941l.914.114v.114c0,.228-.114.343-.457.343l-1.6.114v-.8h0a2.245,2.245,0,0,1-1.828.914c-1.256,0-1.828-.8-1.828-2.171v-3.085l-.8-.114v-.114c0-.229.114-.343.457-.343l1.6-.114v3.77c0,1.143.571,1.371,1.142,1.371a1.474,1.474,0,0,0,1.256-.571V136.6l-.8-.114v-.114c0-.229.114-.343.457-.343l1.6-.114v5.027Z" transform="translate(-22.689 -132.715)"/><path d="M38.055,136.856H36.57v4.456l.8.114a.112.112,0,0,1,.114.114,1.151,1.151,0,0,1-.114.343H34.514v-.114a.3.3,0,0,1,.343-.343l.457-.114v-4.456H34.4v-.114c0-.229.114-.343.343-.457l.571-.114v-.114c0-1.942,1.142-2.856,2.17-2.856.571,0,.8.229.8.686a.712.712,0,0,1-.343.571,1.305,1.305,0,0,0-.8-.343c-.571,0-.685.343-.685,1.028v1.143h1.6Z" transform="translate(-21.836 -133.086)"/><path d="M43.611,136.5H42.583a1.931,1.931,0,0,1,.343,1.143c0,1.257-1.028,1.942-2.4,1.942a1.029,1.029,0,0,1-.571-.114.712.712,0,0,0-.343.571c0,.343.228.457.571.457h1.371q1.713,0,1.713,1.371c0,1.143-1.142,2.285-3.2,2.285-1.485,0-2.17-.571-2.17-1.371a1.482,1.482,0,0,1,1.142-1.371h0a.765.765,0,0,1-.457-.8c0-.686.685-1.028.914-1.143h0a1.915,1.915,0,0,1-1.142-1.828,2.023,2.023,0,0,1,2.284-1.942,2.226,2.226,0,0,1,.914.114h2.17Zm-3.427,5.027h-.457a1.018,1.018,0,0,0-.571.914c0,.571.343,1.028,1.256,1.028,1.142,0,1.828-.571,1.828-1.143,0-.457-.228-.686-.914-.686H40.184Zm-.571-3.885c0,.914.457,1.371,1.028,1.371.685,0,1.142-.343,1.142-1.371a1.114,1.114,0,0,0-1.142-1.257C39.956,136.386,39.613,136.728,39.613,137.642Z" transform="translate(-21.338 -132.729)"/><path d="M45.342,136.843h0c.343-.457.685-1.143,1.485-1.143.571,0,.8.228.8.686a.873.873,0,0,1-.228.571,2.253,2.253,0,0,0-.8-.229,1.337,1.337,0,0,0-1.256.571v3.656l.914.114a.112.112,0,0,1,.114.114,1.151,1.151,0,0,1-.114.343H43.4v-.114a.3.3,0,0,1,.343-.343l.457-.114V136.5l-.8-.114v-.114c0-.229.114-.343.457-.343l1.6-.114Z" transform="translate(-20.556 -132.729)"/><path d="M53.1,140.941l.914.114v.114c0,.228-.114.343-.457.343l-1.6.114v-.8h0a2.245,2.245,0,0,1-1.828.914c-1.256,0-1.828-.8-1.828-2.171v-3.085l-.8-.114v-.114c0-.229.114-.343.457-.343l1.6-.114v3.77c0,1.143.571,1.371,1.142,1.371a1.474,1.474,0,0,0,1.256-.571V136.6l-.8-.114v-.114c0-.229.114-.343.457-.343l1.6-.114v5.027Z" transform="translate(-19.973 -132.715)"/><path d="M59.425,140.956l.685.114a.112.112,0,0,1,.114.114,1.151,1.151,0,0,1-.114.343H57.483v-.114a.3.3,0,0,1,.343-.343l.343-.114v-3.085c0-1.028-.571-1.371-1.142-1.371a1.923,1.923,0,0,0-1.371.571v3.885l.685.114a.112.112,0,0,1,.114.114,1.151,1.151,0,0,1-.114.343H53.6v-.114a.3.3,0,0,1,.343-.343l.457-.114V136.5l-.8-.114v-.114c0-.229.114-.343.457-.343l1.6-.114-.114.8h0a2.6,2.6,0,0,1,1.942-.914,1.808,1.808,0,0,1,1.828,2.057v3.2Z" transform="translate(-19.105 -132.729)"/><path d="M65.14,141.3l.914.114v.114c0,.229-.114.343-.457.343l-1.6.114v-.8h0a2.034,2.034,0,0,1-1.713.8c-1.142,0-2.284-.8-2.284-2.856a2.959,2.959,0,0,1,3.084-3.2,6.437,6.437,0,0,1,.8.114v-2.057l-.8-.114v-.114c0-.229.114-.343.457-.343l1.6-.114Zm-1.256-4.227a1.777,1.777,0,0,0-1.028-.343c-1.028,0-1.713.686-1.713,2.285s.685,2.171,1.485,2.171a2.207,2.207,0,0,0,1.256-.457V137.07Z" transform="translate(-18.195 -133.071)"/><path d="M69.371,138.785c0,1.485.685,2.171,1.713,2.171a2.252,2.252,0,0,0,1.485-.571.866.866,0,0,1,.228.457c0,.343-.8,1.028-2.17,1.028-1.485,0-2.627-.8-2.627-2.971,0-2.057,1.256-3.2,2.627-3.2a1.865,1.865,0,0,1,2.056,2.057c0,.343-.114.686-.114,1.028h-3.2Zm2.056-.686a4.95,4.95,0,0,0,.114-.571c0-.686-.228-1.257-.914-1.257s-1.142.571-1.256,1.714h2.056Z" transform="translate(-17.058 -132.729)"/><path d="M74.956,141.3l.685.114a.112.112,0,0,1,.114.114,1.151,1.151,0,0,1-.114.343H72.9v-.114a.3.3,0,0,1,.343-.343l.457-.114v-4.456l-.8-.114v-.114c0-.229.114-.343.457-.343l1.6-.114V141.3Zm-.571-6.4a.8.8,0,1,1,.8-.8C75.07,134.671,74.728,134.9,74.385,134.9Z" transform="translate(-16.361 -133.071)"/><path d="M81.711,140.956l.685.114a.112.112,0,0,1,.114.114,1.151,1.151,0,0,1-.114.343H79.655v-.114A.3.3,0,0,1,80,141.07l.343-.114v-3.085c0-1.028-.571-1.371-1.142-1.371a1.923,1.923,0,0,0-1.371.571v3.885l.685.114a.112.112,0,0,1,.114.114,1.151,1.151,0,0,1-.114.343H76v-.114a.3.3,0,0,1,.343-.343l.457-.114V136.5l-.8-.114v-.114c0-.229.114-.343.457-.343l1.6-.114-.114.8h0a2.6,2.6,0,0,1,1.942-.914,1.808,1.808,0,0,1,1.828,2.057v3.2Z" transform="translate(-15.92 -132.729)"/><path d="M83.571,138.785c0,1.485.685,2.171,1.713,2.171a2.252,2.252,0,0,0,1.485-.571.866.866,0,0,1,.228.457c0,.343-.8,1.028-2.17,1.028-1.485,0-2.627-.8-2.627-2.971,0-2.057,1.256-3.2,2.627-3.2a1.865,1.865,0,0,1,2.056,2.057c0,.343-.114.686-.114,1.028h-3.2Zm2.17-.686a4.95,4.95,0,0,0,.114-.571c0-.686-.228-1.257-.914-1.257s-1.142.571-1.256,1.714h2.056Z" transform="translate(-15.038 -132.729)"/><path d="M90.056,136.614a1.331,1.331,0,0,0-.8-.229c-.343,0-.8.114-.8.686s.571.8,1.142,1.143c.685.457,1.485.914,1.485,1.828,0,1.028-.8,1.714-2.17,1.714a3.506,3.506,0,0,1-1.485-.343c0-.343-.114-.571-.114-.914,0-.457.114-.686.457-.686h.114l.228,1.028a1.331,1.331,0,0,0,.8.229c.571,0,.914-.229.914-.686,0-.571-.571-.8-1.142-1.143-.685-.457-1.485-.914-1.485-1.942a1.734,1.734,0,0,1,1.942-1.6,1.931,1.931,0,0,1,1.371.457v.686c0,.457-.114.686-.571.686h-.114Z" transform="translate(-14.327 -132.729)"/><path d="M98.055,137.6h0c1.142.229,1.942.914,1.942,1.942,0,1.371-1.142,2.285-3.312,2.285H93.6v-.114c0-.229.114-.343.457-.457l.457-.114v-6.969l-.685-.114a.112.112,0,0,1-.114-.114c0-.114.114-.229.114-.343h2.856c2.17,0,3.2.8,3.2,2.057A1.986,1.986,0,0,1,98.055,137.6Zm-1.6-3.2H95.77v2.971h.685c1.371,0,1.942-.686,1.942-1.485C98.4,134.857,97.826,134.4,96.456,134.4Zm.228,3.656h-.8v3.085h.685c1.371,0,2.056-.686,2.056-1.6C98.626,138.741,97.94,138.056,96.684,138.056Z" transform="translate(-13.417 -133.029)"/><path d="M101.371,138.785c0,1.485.685,2.171,1.713,2.171a2.252,2.252,0,0,0,1.485-.571.866.866,0,0,1,.228.457c0,.343-.8,1.028-2.17,1.028-1.485,0-2.627-.8-2.627-2.971,0-2.057,1.256-3.2,2.627-3.2a1.865,1.865,0,0,1,2.056,2.057c0,.343-.114.686-.114,1.028h-3.2Zm2.17-.686a4.951,4.951,0,0,0,.114-.571c0-.686-.228-1.257-.914-1.257s-1.142.571-1.256,1.714h2.056Z" transform="translate(-12.507 -132.729)"/><path d="M107.855,136.614a1.331,1.331,0,0,0-.8-.229c-.343,0-.8.114-.8.686s.571.8,1.142,1.143c.685.457,1.485.914,1.485,1.828,0,1.028-.8,1.714-2.17,1.714a3.506,3.506,0,0,1-1.485-.343c0-.343-.114-.571-.114-.914,0-.457.114-.686.457-.686h.114l.228,1.028a1.331,1.331,0,0,0,.8.229c.571,0,.914-.229.914-.686,0-.571-.571-.8-1.142-1.143-.685-.457-1.485-.914-1.485-1.942a1.734,1.734,0,0,1,1.942-1.6,1.931,1.931,0,0,1,1.371.457v.686c0,.457-.114.686-.571.686h-.114Z" transform="translate(-11.796 -132.729)"/><path d="M111.927,136.371c-.8,0-1.485.571-1.485,2.171,0,1.485.571,2.4,1.713,2.4a1.712,1.712,0,0,0,1.371-.571.866.866,0,0,1,.228.457c0,.343-.685,1.028-1.942,1.028-1.6,0-2.513-1.028-2.513-2.971a2.847,2.847,0,0,1,2.97-3.085c1.371,0,1.6.686,1.6,1.028s-.114.571-.571.686C113.069,136.943,112.727,136.371,111.927,136.371Z" transform="translate(-11.185 -132.715)"/><path d="M115.784,136.87h0a2.141,2.141,0,0,1,1.828-.914c1.142,0,1.828.686,1.828,2.057v3.2l.685.114a.112.112,0,0,1,.114.114,1.151,1.151,0,0,1-.114.343h-2.741v-.114a.3.3,0,0,1,.343-.343l.343-.114v-3.085c0-1.028-.571-1.371-1.142-1.371a1.712,1.712,0,0,0-1.371.571v3.77l.685.114a.112.112,0,0,1,.114.114,1.151,1.151,0,0,1-.114.343H113.5v-.114a.3.3,0,0,1,.343-.343l.457-.114v-7.312l-.8-.114v-.114c0-.229.114-.343.457-.343l1.6-.114v3.77Z" transform="translate(-10.587 -133.1)"/><path d="M121.942,141.3l.685.114a.112.112,0,0,1,.114.114,1.151,1.151,0,0,1-.114.343H120v-.114a.3.3,0,0,1,.343-.343l.457-.114v-7.312l-.8-.114v-.114c0-.229.114-.343.457-.343l1.6-.114v8Z" transform="translate(-9.663 -133.071)"/><path d="M128.5,140.941l.914.114v.114c0,.228-.114.343-.457.343l-1.6.114v-.8h0a2.245,2.245,0,0,1-1.828.914c-1.256,0-1.828-.8-1.828-2.171v-3.085l-.8-.114v-.114c0-.229.114-.343.457-.343l1.6-.114v3.77c0,1.143.571,1.371,1.142,1.371a1.474,1.474,0,0,0,1.256-.571V136.6l-.8-.114v-.114c0-.229.114-.343.457-.343l1.6-.114v5.027Z" transform="translate(-9.251 -132.715)"/><path d="M131.956,136.614a1.331,1.331,0,0,0-.8-.229c-.343,0-.8.114-.8.686s.571.8,1.142,1.143c.685.457,1.485.914,1.485,1.828,0,1.028-.8,1.714-2.17,1.714a3.505,3.505,0,0,1-1.485-.343c0-.343-.114-.571-.114-.914,0-.457.114-.686.457-.686h.114l.228,1.028a1.331,1.331,0,0,0,.8.229c.571,0,.914-.229.914-.686,0-.571-.571-.8-1.142-1.143-.685-.457-1.485-.914-1.485-1.942a1.734,1.734,0,0,1,1.942-1.6,1.931,1.931,0,0,1,1.371.457v.686c0,.457-.114.686-.571.686h-.114Z" transform="translate(-8.369 -132.729)"/><path d="M136.056,136.614a1.331,1.331,0,0,0-.8-.229c-.343,0-.8.114-.8.686s.571.8,1.142,1.143c.685.457,1.485.914,1.485,1.828,0,1.028-.8,1.714-2.17,1.714a3.506,3.506,0,0,1-1.485-.343c0-.343-.114-.571-.114-.914,0-.457.114-.686.457-.686h.114l.228,1.028a1.331,1.331,0,0,0,.8.229c.571,0,.914-.229.914-.686,0-.571-.571-.8-1.142-1.143-.685-.457-1.485-.914-1.485-1.942a1.734,1.734,0,0,1,1.942-1.6,1.931,1.931,0,0,1,1.371.457v.686c0,.457-.114.686-.571.686h-.114Z" transform="translate(-7.786 -132.729)"/><path d="M138.771,138.785c0,1.485.685,2.171,1.713,2.171a2.252,2.252,0,0,0,1.485-.571.866.866,0,0,1,.228.457c0,.343-.8,1.028-2.17,1.028-1.485,0-2.627-.8-2.627-2.971,0-2.057,1.256-3.2,2.627-3.2a1.865,1.865,0,0,1,2.056,2.057c0,.343-.114.686-.114,1.028h-3.2Zm2.056-.686a4.95,4.95,0,0,0,.114-.571c0-.686-.228-1.257-.914-1.257s-1.142.571-1.256,1.714h2.056Z" transform="translate(-7.189 -132.729)"/><path d="M145.155,136.614a1.331,1.331,0,0,0-.8-.229c-.343,0-.8.114-.8.686s.571.8,1.142,1.143c.685.457,1.485.914,1.485,1.828,0,1.028-.8,1.714-2.17,1.714a3.506,3.506,0,0,1-1.485-.343c0-.343-.114-.571-.114-.914,0-.457.114-.686.457-.686h.114l.228,1.028a1.331,1.331,0,0,0,.8.229c.571,0,.914-.229.914-.686,0-.571-.571-.8-1.142-1.143-.685-.457-1.485-.914-1.485-1.942a1.734,1.734,0,0,1,1.942-1.6,1.931,1.931,0,0,1,1.371.457v.686c0,.457-.114.686-.571.686h-.114Z" transform="translate(-6.492 -132.729)"/><path d="M28.84,153.3l.914.114v.114c0,.229-.114.343-.457.343l-1.6.114v-.8h0a2.034,2.034,0,0,1-1.713.8c-1.142,0-2.284-.8-2.284-2.856a2.959,2.959,0,0,1,3.084-3.2,6.438,6.438,0,0,1,.8.114v-2.057l-.8-.114v-.114c0-.229.114-.343.457-.343l1.6-.114Zm-1.256-4.227a1.777,1.777,0,0,0-1.028-.343c-1.028,0-1.713.686-1.713,2.285s.685,2.171,1.485,2.171a2.207,2.207,0,0,0,1.256-.457Z" transform="translate(-23.357 -131.361)"/><path d="M30.771,150.785c0,1.485.685,2.171,1.713,2.171a2.252,2.252,0,0,0,1.485-.571.866.866,0,0,1,.228.457c0,.343-.8,1.028-2.17,1.028-1.485,0-2.627-.8-2.627-2.971s1.256-3.2,2.627-3.2a1.865,1.865,0,0,1,2.056,2.057c0,.343-.114.686-.114,1.028h-3.2Zm2.17-.686a4.952,4.952,0,0,0,.114-.571c0-.686-.228-1.257-.914-1.257s-1.142.571-1.256,1.714h2.056Z" transform="translate(-22.547 -131.019)"/><path d="M37.256,148.614a1.331,1.331,0,0,0-.8-.229c-.343,0-.8.114-.8.686s.571.8,1.142,1.143c.685.457,1.485.914,1.485,1.828,0,1.028-.8,1.714-2.17,1.714a3.505,3.505,0,0,1-1.485-.343c0-.343-.114-.571-.114-.914,0-.457.114-.686.457-.686h.114l.228,1.028a1.331,1.331,0,0,0,.8.229c.571,0,.914-.229.914-.686,0-.571-.571-.8-1.142-1.143-.685-.457-1.485-.914-1.485-1.942a1.734,1.734,0,0,1,1.942-1.6,1.931,1.931,0,0,1,1.371.457v.686c0,.457-.114.686-.571.686h-.114Z" transform="translate(-21.836 -131.019)"/><path d="M43.541,153.926H40.8v-.114c0-.229.114-.343.457-.457l.457-.114v-6.969l-.685-.114a.112.112,0,0,1-.114-.114c0-.114.114-.229.114-.343h2.627c2.97,0,4.8,1.143,4.8,4S46.625,153.926,43.541,153.926Zm0-7.541h-.457v6.855h.457a3.192,3.192,0,0,0,3.541-3.542C46.968,147.414,45.711,146.386,43.541,146.386Z" transform="translate(-20.926 -131.304)"/><path d="M49.671,150.785c0,1.485.685,2.171,1.713,2.171a2.252,2.252,0,0,0,1.485-.571.866.866,0,0,1,.228.457c0,.343-.8,1.028-2.17,1.028-1.485,0-2.627-.8-2.627-2.971s1.256-3.2,2.627-3.2a1.865,1.865,0,0,1,2.056,2.057c0,.343-.114.686-.114,1.028h-3.2Zm2.056-.686a4.952,4.952,0,0,0,.114-.571c0-.686-.228-1.257-.914-1.257s-1.142.571-1.256,1.714h2.056Z" transform="translate(-19.859 -131.019)"/><path d="M58.7,152.941l.914.114v.114c0,.229-.114.343-.457.343l-1.6.114v-.8h0a2.245,2.245,0,0,1-1.828.914c-1.256,0-1.828-.8-1.828-2.171v-3.085l-.8-.114v-.114c0-.228.114-.343.457-.343l1.6-.114v3.77c0,1.143.571,1.371,1.142,1.371a1.474,1.474,0,0,0,1.256-.571V148.6l-.8-.114v-.114c0-.229.114-.343.457-.343l1.6-.114v5.027Z" transform="translate(-19.177 -131.005)"/><path d="M62.855,148.7h-1.6v3.542c0,.571.114,1.028.8,1.028a1.378,1.378,0,0,0,.914-.343.42.42,0,0,1,.114.343c0,.114-.457.686-1.485.686a1.412,1.412,0,0,1-1.485-1.6v-3.77H59.2v-.114c0-.229.114-.343.343-.457l.571-.114.228-1.6h.914v1.6h1.828Z" transform="translate(-18.309 -131.219)"/><path d="M65.856,148.614a1.331,1.331,0,0,0-.8-.229c-.343,0-.8.114-.8.686s.571.8,1.142,1.143c.685.457,1.485.914,1.485,1.828,0,1.028-.8,1.714-2.17,1.714a3.505,3.505,0,0,1-1.485-.343c0-.343-.114-.571-.114-.914,0-.457.114-.686.457-.686h.114l.228,1.028a1.331,1.331,0,0,0,.8.229c.571,0,.914-.229.914-.686,0-.571-.571-.8-1.142-1.143C63.8,150.785,63,150.328,63,149.3a1.734,1.734,0,0,1,1.942-1.6,1.931,1.931,0,0,1,1.371.457v.686c0,.457-.114.686-.571.686h-.114Z" transform="translate(-17.769 -131.019)"/><path d="M70.027,148.371c-.8,0-1.485.571-1.485,2.171,0,1.485.571,2.4,1.713,2.4a1.712,1.712,0,0,0,1.371-.571.866.866,0,0,1,.228.457c0,.343-.685,1.028-1.942,1.028-1.6,0-2.513-1.028-2.513-2.971a2.847,2.847,0,0,1,2.97-3.085c1.371,0,1.6.686,1.6,1.028s-.114.571-.571.686C71.055,148.943,70.712,148.371,70.027,148.371Z" transform="translate(-17.143 -131.005)"/><path d="M73.784,148.87h0a2.141,2.141,0,0,1,1.828-.914c1.142,0,1.828.686,1.828,2.057v3.2l.685.114a.112.112,0,0,1,.114.114,1.151,1.151,0,0,1-.114.343H75.383v-.114a.3.3,0,0,1,.343-.343l.343-.114v-3.085c0-1.028-.571-1.371-1.142-1.371a1.712,1.712,0,0,0-1.371.571v3.77l.685.114a.112.112,0,0,1,.114.114,1.151,1.151,0,0,1-.114.343H71.5v-.114a.3.3,0,0,1,.343-.343l.457-.114v-7.312l-.8-.114v-.114c0-.228.114-.343.457-.343l1.6-.114v3.77Z" transform="translate(-16.56 -131.39)"/><path d="M79.371,150.785c0,1.485.685,2.171,1.713,2.171a2.252,2.252,0,0,0,1.485-.571.866.866,0,0,1,.228.457c0,.343-.8,1.028-2.17,1.028-1.485,0-2.627-.8-2.627-2.971s1.256-3.2,2.627-3.2a1.865,1.865,0,0,1,2.056,2.057c0,.343-.114.686-.114,1.028h-3.2Zm2.17-.686a4.952,4.952,0,0,0,.114-.571c0-.686-.228-1.257-.914-1.257s-1.142.571-1.256,1.714h2.056Z" transform="translate(-15.636 -131.019)"/><path d="M88.711,152.956l.685.114a.112.112,0,0,1,.114.114,1.151,1.151,0,0,1-.114.343H86.655v-.114A.3.3,0,0,1,87,153.07l.343-.114v-3.085c0-1.028-.571-1.371-1.142-1.371a1.923,1.923,0,0,0-1.371.571v3.885l.685.114a.112.112,0,0,1,.114.114,1.151,1.151,0,0,1-.114.343H83v-.114a.3.3,0,0,1,.343-.343l.457-.114V148.5l-.8-.114v-.114c0-.229.114-.343.457-.343l1.6-.114-.114.8h0a2.6,2.6,0,0,1,1.942-.914,1.808,1.808,0,0,1,1.828,2.057v3.2Z" transform="translate(-14.925 -131.019)"/><path d="M95.955,149.6h0c1.142.229,1.942.914,1.942,1.942,0,1.371-1.142,2.285-3.312,2.285H91.5v-.114c0-.229.114-.343.457-.457l.457-.114v-6.969l-.685-.114a.112.112,0,0,1-.114-.114c0-.114.114-.228.114-.343h2.856c2.17,0,3.2.8,3.2,2.057A1.986,1.986,0,0,1,95.955,149.6Zm-1.6-3.2H93.67v2.971h.685c1.371,0,1.942-.686,1.942-1.485C96.3,146.857,95.726,146.4,94.355,146.4Zm.228,3.656h-.8v3.085h.685c1.371,0,2.056-.686,2.056-1.6C96.526,150.741,95.84,150.056,94.584,150.056Z" transform="translate(-13.716 -131.318)"/><path d="M103.4,152.941l.914.114v.114c0,.229-.114.343-.457.343l-1.6.114v-.8h0a2.245,2.245,0,0,1-1.828.914c-1.256,0-1.828-.8-1.828-2.171v-3.085l-.8-.114v-.114c0-.228.114-.343.457-.343l1.6-.114v3.77c0,1.143.571,1.371,1.142,1.371a1.474,1.474,0,0,0,1.256-.571V148.6l-.8-.114v-.114c0-.229.114-.343.457-.343l1.6-.114v5.027Z" transform="translate(-12.82 -131.005)"/><path d="M109.711,152.956l.685.114a.112.112,0,0,1,.114.114,1.151,1.151,0,0,1-.114.343h-2.741v-.114a.3.3,0,0,1,.343-.343l.343-.114v-3.085c0-1.028-.571-1.371-1.142-1.371a1.923,1.923,0,0,0-1.371.571v3.885l.685.114a.112.112,0,0,1,.114.114,1.151,1.151,0,0,1-.114.343H104v-.114a.3.3,0,0,1,.343-.343l.457-.114V148.5l-.8-.114v-.114c0-.229.114-.343.457-.343l1.6-.114-.114.8h0a2.6,2.6,0,0,1,1.942-.914,1.808,1.808,0,0,1,1.828,2.057v3.2Z" transform="translate(-11.938 -131.019)"/><path d="M115.54,153.3l.914.114v.114c0,.229-.114.343-.457.343l-1.6.114v-.8h0a2.034,2.034,0,0,1-1.713.8c-1.142,0-2.284-.8-2.284-2.856a2.959,2.959,0,0,1,3.084-3.2,6.438,6.438,0,0,1,.8.114v-2.057l-.8-.114v-.114c0-.229.114-.343.457-.343l1.6-.114Zm-1.256-4.227a1.777,1.777,0,0,0-1.028-.343c-1.028,0-1.713.686-1.713,2.285s.685,2.171,1.485,2.171a2.207,2.207,0,0,0,1.256-.457Z" transform="translate(-11.028 -131.361)"/><path d="M117.471,150.785c0,1.485.685,2.171,1.713,2.171a2.252,2.252,0,0,0,1.485-.571.866.866,0,0,1,.228.457c0,.343-.8,1.028-2.17,1.028-1.485,0-2.627-.8-2.627-2.971s1.256-3.2,2.627-3.2a1.865,1.865,0,0,1,2.056,2.057c0,.343-.114.686-.114,1.028h-3.2Zm2.17-.686a4.952,4.952,0,0,0,.114-.571c0-.686-.228-1.257-.914-1.257s-1.142.571-1.256,1.714h2.056Z" transform="translate(-10.218 -131.019)"/><path d="M123.955,148.614a1.331,1.331,0,0,0-.8-.229c-.343,0-.8.114-.8.686s.571.8,1.142,1.143c.685.457,1.485.914,1.485,1.828,0,1.028-.8,1.714-2.17,1.714a3.505,3.505,0,0,1-1.485-.343c0-.343-.114-.571-.114-.914,0-.457.114-.686.457-.686h.114l.228,1.028a1.331,1.331,0,0,0,.8.229c.571,0,.914-.229.914-.686,0-.571-.571-.8-1.142-1.143-.685-.457-1.485-.914-1.485-1.942a1.734,1.734,0,0,1,1.942-1.6,1.931,1.931,0,0,1,1.371.457v.686c0,.457-.114.686-.571.686h-.114Z" transform="translate(-9.507 -131.019)"/><path d="M128.769,148.7h-1.6v3.542c0,.571.114,1.028.8,1.028a1.378,1.378,0,0,0,.914-.343.42.42,0,0,1,.114.343c0,.114-.457.686-1.485.686-1.142,0-1.485-.686-1.485-1.6v-3.77H125v-.114c0-.229.114-.343.343-.457l.571-.114.228-1.6h.914v1.6h1.828Z" transform="translate(-8.952 -131.219)"/><path d="M133.255,152.384c0,.457.228.571.343.571.228,0,.457-.114.457-.229a.42.42,0,0,1,.114.343c0,.114-.343.571-1.142.571a.91.91,0,0,1-1.028-.8h0a1.743,1.743,0,0,1-1.6.914,1.5,1.5,0,0,1-1.6-1.6c0-1.257,1.371-1.714,2.741-1.714h.343v-.571c0-1.143-.343-1.485-1.028-1.485a2.323,2.323,0,0,0-.571.114,2.729,2.729,0,0,0-.228,1.028h-.228c-.457,0-.685-.229-.685-.571,0-.8,1.028-1.257,2.056-1.257,1.371,0,1.942.686,1.942,2.057v2.628Zm-1.485-1.371c-.914,0-1.485.343-1.485,1.028a.781.781,0,0,0,.8.8,1.311,1.311,0,0,0,1.028-.571V150.9Z" transform="translate(-8.412 -131.019)"/><path d="M139.311,148.5h-1.028a1.931,1.931,0,0,1,.343,1.143c0,1.257-1.028,1.942-2.4,1.942a1.029,1.029,0,0,1-.571-.114.712.712,0,0,0-.343.571c0,.343.228.457.571.457h1.371q1.713,0,1.713,1.371c0,1.143-1.142,2.285-3.2,2.285-1.485,0-2.17-.571-2.17-1.371a1.482,1.482,0,0,1,1.142-1.371h0a.765.765,0,0,1-.457-.8c0-.686.685-1.028.914-1.143h0a1.915,1.915,0,0,1-1.142-1.828,2.023,2.023,0,0,1,2.284-1.942,2.226,2.226,0,0,1,.914.114h2.056Zm-3.427,5.027h-.457a1.018,1.018,0,0,0-.571.914c0,.571.343,1.028,1.256,1.028,1.142,0,1.828-.571,1.828-1.143,0-.457-.228-.686-.914-.686h-1.142Zm-.457-3.885c0,.914.457,1.371,1.028,1.371.685,0,1.142-.343,1.142-1.371a1.114,1.114,0,0,0-1.142-1.257C135.77,148.385,135.428,148.728,135.428,149.642Z" transform="translate(-7.729 -131.019)"/><path d="M140.571,150.785c0,1.485.685,2.171,1.713,2.171a2.252,2.252,0,0,0,1.485-.571.866.866,0,0,1,.228.457c0,.343-.8,1.028-2.17,1.028-1.485,0-2.627-.8-2.627-2.971s1.256-3.2,2.627-3.2a1.865,1.865,0,0,1,2.056,2.057c0,.343-.114.686-.114,1.028h-3.2Zm2.056-.686a4.951,4.951,0,0,0,.114-.571c0-.686-.228-1.257-.914-1.257s-1.142.571-1.256,1.714h2.056Z" transform="translate(-6.933 -131.019)"/><path d="M146.955,148.614a1.331,1.331,0,0,0-.8-.229c-.343,0-.8.114-.8.686s.571.8,1.142,1.143c.685.457,1.485.914,1.485,1.828,0,1.028-.8,1.714-2.17,1.714a3.505,3.505,0,0,1-1.485-.343c0-.343-.114-.571-.114-.914,0-.457.114-.686.457-.686h.114l.228,1.028a1.331,1.331,0,0,0,.8.229c.571,0,.914-.229.914-.686,0-.571-.571-.8-1.142-1.143-.685-.457-1.485-.914-1.485-1.942a1.734,1.734,0,0,1,1.942-1.6,1.931,1.931,0,0,1,1.371.457v.686c0,.457-.114.686-.571.686h-.114Z" transform="translate(-6.236 -131.019)"/></g></g><g transform="translate(25.271 57.698)"><path class="c" d="M54.784,91.5H56.5v22.851h-4V91.5Z" transform="translate(-18.805 -44.656)"/><path class="d" d="M54.784,71.5H56.5V94.351h-4V71.5Z" transform="translate(-18.805 -47.507)"/><path d="M46.3,59.64a3.207,3.207,0,0,0,3.427,1.828,10.448,10.448,0,0,1-2.284-2.628l-2.17-3.428a5.168,5.168,0,0,0-1.6-2.742l.685-.343c-1.371,0-2.741-.686-3.541-.686a.764.764,0,0,0-.8.686c0,.457.457.914,1.256.914a1.448,1.448,0,0,0,.685-.114,2.982,2.982,0,0,1,.8,1.942c0,1.485-1.828,2.628-3.541,2.628h-.343c-.114-.343-.685-1.028-.685-1.714,0-1.143.8-2.171.8-3.313a2.688,2.688,0,0,0-.457-1.371,3.029,3.029,0,0,0,.571-.686c-.114,0-.228.114-.457.114-.914,0-1.6-.229-2.284-.229-.343,0-.457.114-.457.229v.114c-.114-.114-.228-.114-.457-.114s-.457-.114-.685-.114c-.8,0-1.142.343-1.142.686a2.586,2.586,0,0,0,.457,1.028,3.53,3.53,0,0,1,.914-.229c.457,0,.8.457,1.028.914h-.685a4.515,4.515,0,0,1-1.485-.343h0a.893.893,0,0,0,.685.571,6.65,6.65,0,0,0,1.6.343s-.114.343-.343.343h-.114c-.571-.114-.8-.229-1.6-.457h0c0,.343.8,1.028,1.485,1.257a9.34,9.34,0,0,0-1.713,2.742h-.343c-1.828,0-3.541-1.143-3.541-2.628a2.982,2.982,0,0,1,.8-1.942c.228,0,.457.114.685.114.8,0,1.256-.457,1.256-.914a.764.764,0,0,0-.8-.686c-.8,0-2.17.686-3.541.686a1.859,1.859,0,0,0,.685.343,5.168,5.168,0,0,0-1.6,2.742l-2.17,3.428A10.447,10.447,0,0,1,23,61.24a3.207,3.207,0,0,0,3.427-1.828L27.569,57.7l.343.686-2.17,3.542a10.447,10.447,0,0,1-2.284,2.628,3.207,3.207,0,0,0,3.427-1.828l1.828-2.971.457.457-2.627,4.227a8.652,8.652,0,0,1-2.284,2.514,3.207,3.207,0,0,0,3.427-1.828l2.627-4.113a2.5,2.5,0,0,0,.571.343l-3.2,5.027A8.652,8.652,0,0,1,25.4,68.895a3.207,3.207,0,0,0,3.427-1.828l3.2-5.141c.228.114.343.114.571.229l-3.655,5.827a8.652,8.652,0,0,1-2.284,2.514,3.207,3.207,0,0,0,3.427-1.828l3.883-6.284h.114a3.533,3.533,0,0,1,.228.914c0,1.942-1.256,3.656-2.856,5.027.114,0,.228.114.457.114h.685a22.033,22.033,0,0,1-1.485,2.4,8.643,8.643,0,0,0-1.713-.114.533.533,0,0,0-.571.571,1.448,1.448,0,0,0,.457,1.028c.114-.228.228-.571,1.256-.571h.114c-.228.343-1.142,1.028-1.142,1.6a1.089,1.089,0,0,0,.914.914v-.343a2.256,2.256,0,0,1,.685-1.371v.229c0,1.028.114,1.6.8,1.6.343,0,.571-.229.685-.229-.457-.457-.457-.686-.457-1.371V71.751h.571s.914-.114,1.142.457c.228-.229.685-.571.685-.914a.533.533,0,0,0-.571-.571c-.228,0-.8.114-1.256.114a8.729,8.729,0,0,1,1.256-1.828,2.39,2.39,0,0,0,.457.686,3.968,3.968,0,0,1,.914-2.4,7.791,7.791,0,0,1,.228,2.057c0,2.628-.685,4.57-1.942,4.913a1.165,1.165,0,0,0,.914.571c.457,0,.8-.571,1.028-1.028.114.343.571,1.371.914,1.371s.8-.914.914-1.371c.228.571.571,1.028,1.028,1.028a1.017,1.017,0,0,0,.914-.571c-1.371-.343-1.942-2.285-1.942-4.913,0-1.143.114-1.6.114-2.057a4.519,4.519,0,0,1,.914,2.4,2.39,2.39,0,0,0,.457-.686,10.573,10.573,0,0,1,1.256,1.828c-.457,0-1.028-.114-1.256-.114-.457,0-.571.229-.571.571s.343.686.685.914c.228-.457,1.142-.457,1.142-.457H40.7v1.028a1.57,1.57,0,0,1-.457,1.371c.114,0,.343.229.685.229.685,0,.8-.457.8-1.6v-.229a2.256,2.256,0,0,1,.685,1.371v.343a.977.977,0,0,0,.914-.914c0-.571-.8-1.257-1.142-1.6H42.3c.914,0,1.142.343,1.256.571a1.448,1.448,0,0,0,.457-1.028c0-.229,0-.571-.571-.571-.457,0-1.256.114-1.713.114a22.033,22.033,0,0,1-1.485-2.4h.685a.687.687,0,0,0,.457-.114c-1.6-1.371-2.856-3.085-2.856-5.027a2.153,2.153,0,0,1,.228-.914h.114l3.883,6.284a3.207,3.207,0,0,0,3.427,1.828A13.077,13.077,0,0,1,43.9,67.981l-3.655-5.827c.228-.114.343-.114.571-.229l3.2,5.141a3.207,3.207,0,0,0,3.427,1.828,10.4,10.4,0,0,1-2.284-2.514l-3.312-5.027c.228-.114.343-.229.571-.343l2.627,4.113a3.207,3.207,0,0,0,3.427,1.828,10.394,10.394,0,0,1-2.284-2.514L43.56,60.212c.114-.114.343-.229.457-.457l1.828,2.971a3.207,3.207,0,0,0,3.427,1.828,8.8,8.8,0,0,1-2.284-2.628l-2.17-3.542.343-.686ZM28.825,55.527A4.038,4.038,0,0,1,30.082,52.9h.228a3.53,3.53,0,0,0-1.028,2.171c0,1.942,2.056,3.542,4.34,3.542v1.257A4.674,4.674,0,0,1,28.825,55.527ZM32.366,71.18h1.713c.228,0,.343,0,.343.229a1.522,1.522,0,0,1-.343.571,1.635,1.635,0,0,0-1.256-.343,1.943,1.943,0,0,0-.8.114h0v1.257a1.838,1.838,0,0,0,.343,1.257h-.228c-.343,0-.457-.114-.457-1.257v-.8h0a3.789,3.789,0,0,0-1.256,1.828.628.628,0,0,1-.343-.571c0-.343.457-.8,1.028-1.371l.343-.343h-.114a4.946,4.946,0,0,0-.571-.114,1.837,1.837,0,0,0-1.256.343c-.114-.114-.114-.457-.114-.571s0-.229.114-.229h.228a7.156,7.156,0,0,1,1.828.229h0a25.149,25.149,0,0,0,1.713-2.742h.228c.228,0,.343.228.457.457A5.2,5.2,0,0,0,32.366,71.18Zm7.082-2.742h.228a14.672,14.672,0,0,0,1.713,2.742h0c.343,0,1.142-.229,1.828-.229h.228a.4.4,0,0,1,.114.229c0,.114-.114.457-.114.571a1.837,1.837,0,0,0-1.256-.343.856.856,0,0,0-.571.114h0l.343.343c.571.571,1.028,1.028,1.028,1.371a.971.971,0,0,1-.343.571,2.7,2.7,0,0,0-1.256-1.828h0v.8c0,1.143-.114,1.257-.457,1.257H40.7a1.651,1.651,0,0,0,.343-1.257V71.523h-.114c-.228,0-.571-.114-.8-.114-.571,0-.914,0-1.142.343a.628.628,0,0,1-.343-.571c0-.229.114-.229.343-.229h.343a12.022,12.022,0,0,0,1.371.114h0a10.423,10.423,0,0,0-1.485-2.285C39.105,68.666,39.105,68.438,39.448,68.438Zm-3.084-15.2a2.3,2.3,0,0,0-.457-.914,1.538,1.538,0,0,0-1.028-.571,2.117,2.117,0,0,0-.8.229,1.225,1.225,0,0,1-.228-.686c0-.114.228-.343.8-.343,1.142,0,1.828.571,1.828,1.371A1.13,1.13,0,0,1,36.364,53.242Zm.571-1.143a1.624,1.624,0,0,0-.228-.686c0-.229.114-.457.457-.229-.228.229,0,.571,0,.571s.457-.229.343-.457C37.963,51.414,37.506,52.214,36.935,52.1Zm2.284,7.883V58.726c2.284,0,4.226-1.714,4.226-3.542a3.261,3.261,0,0,0-1.028-2.171h.228A4.038,4.038,0,0,1,43.9,55.641C44.017,57.812,41.732,59.983,39.219,59.983Z" transform="translate(-23 -50.5)"/><path d="M56.5,51.5V74.351h-4V51.5Z" transform="translate(-18.805 -50.357)"/><path d="M68.411,53.742a1.7,1.7,0,0,1-.114.8l-.343.686c-.114.229-.343.343-.457.457-.228.114-.343.229-.571.229h0a1.623,1.623,0,0,1,.685.229,2.006,2.006,0,0,1,.571.457l.343.686a1.945,1.945,0,0,1,.114.8,3.337,3.337,0,0,1-.228,1.028,2.049,2.049,0,0,1-.571.8,2.208,2.208,0,0,1-1.028.571,5.786,5.786,0,0,1-1.485.229H63.385V51.343h1.942a4.706,4.706,0,0,1,1.371.114,4.057,4.057,0,0,1,1.028.457,1.322,1.322,0,0,1,.571.8A3.164,3.164,0,0,1,68.411,53.742Zm-1.142,0a1.114,1.114,0,0,0-.457-1.028,2.543,2.543,0,0,0-1.485-.457h-.571V55.57h.571a1.938,1.938,0,0,0,1.485-.457A1.822,1.822,0,0,0,67.269,53.742Zm.228,4.342a1.718,1.718,0,0,0-.457-1.257,1.82,1.82,0,0,0-1.371-.457h-.8v3.313h.685c.685,0,1.256-.114,1.485-.457A1.343,1.343,0,0,0,67.5,58.084Zm7.2,2.628H73.665v-.686h0l-.228.229-.343.343a.866.866,0,0,1-.457.229c-.114,0-.457.114-.685.114a1.693,1.693,0,0,1-.8-.114,1.14,1.14,0,0,1-.571-.457c-.114-.229-.343-.457-.343-.686a3.523,3.523,0,0,1-.114-1.143V54.313h1.142v4.227a2.459,2.459,0,0,0,.228,1.143,1.037,1.037,0,0,0,.8.343,1.65,1.65,0,0,0,.8-.229c.228-.114.343-.343.571-.457V54.313h1.142v6.4Zm5.254,0V56.484a2.459,2.459,0,0,0-.228-1.143,1.037,1.037,0,0,0-.8-.343,1.651,1.651,0,0,0-.8.229c-.228.114-.343.343-.571.457v5.027H76.406V54.2h1.028v.686h0l.228-.229.343-.343a.872.872,0,0,1,.571-.229c.228,0,.457-.114.685-.114a1.693,1.693,0,0,1,.8.114,1.14,1.14,0,0,1,.571.457c.114.229.343.457.343.686a3.523,3.523,0,0,1,.114,1.143V60.6H79.947Zm2.513-3.085a6.917,6.917,0,0,1,.228-1.714,2.324,2.324,0,0,1,.685-1.028,2.487,2.487,0,0,1,.914-.571,3.162,3.162,0,0,1,1.028-.114h.571c.114,0,.228.114.343.114V51.229l1.142-.114v9.712H86.344V60.14h0a.4.4,0,0,0-.114.229c-.114.114-.228.229-.343.229a.593.593,0,0,1-.457.229,1.448,1.448,0,0,1-.685.114,2.688,2.688,0,0,1-.914-.229,1.679,1.679,0,0,1-.685-.571,2.153,2.153,0,0,1-.457-1.028A3.137,3.137,0,0,1,82.46,57.627Zm2.513,2.285c.228,0,.343,0,.457-.114.114,0,.228-.114.343-.114.114-.114.228-.114.228-.229.114-.114.114-.114.114-.229v-4a.42.42,0,0,0-.343-.114c-.114,0-.343-.114-.457-.114a1.448,1.448,0,0,0-.685.114,1.14,1.14,0,0,0-.571.457,1.706,1.706,0,0,0-.343.8,5.772,5.772,0,0,0,0,2.285,1.86,1.86,0,0,0,.343.686c.114.229.343.343.457.457A.687.687,0,0,0,84.973,59.912ZM93.2,56.37v1.257H89.884a3.084,3.084,0,0,0,.457,1.714,1.636,1.636,0,0,0,1.256.571,1.029,1.029,0,0,0,.571-.114c.114,0,.343-.114.457-.114.114-.114.228-.114.228-.229l.114-.114.457.8-.228.229c-.114.114-.228.229-.343.229-.114.114-.343.114-.571.229a1.693,1.693,0,0,1-.8.114,3.378,3.378,0,0,1-1.142-.229,1.536,1.536,0,0,1-.8-.686,3.574,3.574,0,0,1-.571-1.143,5.957,5.957,0,0,1-.228-1.6,5.79,5.79,0,0,1,.228-1.485,2.209,2.209,0,0,1,.571-1.028,2.049,2.049,0,0,1,.8-.571,2.687,2.687,0,0,1,.914-.229,2.171,2.171,0,0,1,1.485.571A3.115,3.115,0,0,1,93.2,56.37ZM91.141,55a1.039,1.039,0,0,0-.914.457,3.855,3.855,0,0,0-.457,1.371h2.4V56.37a2.282,2.282,0,0,0-.228-1.028A1.037,1.037,0,0,0,91.141,55Zm6.4.571-.343-.343A1.65,1.65,0,0,0,96.4,55a1.224,1.224,0,0,0-.685.229.688.688,0,0,0,0,1.028,1.756,1.756,0,0,0,.685.457l.457.229a4.014,4.014,0,0,1,1.028.8,1.931,1.931,0,0,1,.343,1.143,1.637,1.637,0,0,1-.571,1.257,2.259,2.259,0,0,1-1.6.571,1.448,1.448,0,0,1-.685-.114c-.228,0-.343-.114-.571-.229-.114-.114-.228-.114-.343-.229s-.228-.114-.228-.229L94.8,59l.228.229.228.229a.42.42,0,0,0,.343.114c.114,0,.343.114.457.114a1.65,1.65,0,0,0,.8-.229c.228-.114.228-.343.228-.571a.687.687,0,0,0-.114-.457c0-.114-.114-.229-.228-.343s-.228-.229-.343-.229a.593.593,0,0,0-.457-.229l-.457-.229a3.259,3.259,0,0,1-.914-.8,1.931,1.931,0,0,1-.343-1.143,1.45,1.45,0,0,1,.114-.686A2.006,2.006,0,0,1,94.8,54.2c.228-.114.343-.229.571-.343a2.113,2.113,0,0,1,1.371,0,.593.593,0,0,1,.457.229c.114.114.228.114.343.229l.228.229Zm5.368,5.141V56.484a2.459,2.459,0,0,0-.228-1.143.889.889,0,0,0-.8-.343c-.228,0-.343,0-.457.114-.114,0-.228.114-.343.114-.114.114-.228.114-.228.229l-.228.229v5.027H99.479V54.2h1.028v.686h0c0-.114.114-.114.228-.229l.343-.343a.866.866,0,0,1,.457-.229,4.946,4.946,0,0,1,.571-.114,1.7,1.7,0,0,1,1.6.914c.114-.114.114-.229.228-.343s.228-.229.343-.229c.114-.114.343-.114.457-.229a.856.856,0,0,1,.571-.114c1.371,0,1.942.8,1.942,2.285V60.6H106.1V56.37a2.459,2.459,0,0,0-.228-1.143,1.037,1.037,0,0,0-.8-.343,1.65,1.65,0,0,0-.8.229c-.228.114-.343.343-.457.457V60.6h-.914Zm7.2,0h-1.142V54.2H110.1ZM109.53,52.6a.8.8,0,1,1,0-1.6c.228,0,.343.114.571.229a.829.829,0,0,1,0,1.143C109.987,52.6,109.759,52.6,109.53,52.6Zm5.825,8.112V56.484a2.459,2.459,0,0,0-.228-1.143,1.037,1.037,0,0,0-.8-.343,1.65,1.65,0,0,0-.8.229c-.228.114-.343.343-.571.457v5.027h-1.142V54.2h1.028v.686h0l.228-.229.343-.343a.872.872,0,0,1,.571-.229c.228,0,.457-.114.685-.114a1.693,1.693,0,0,1,.8.114,1.14,1.14,0,0,1,.571.457c.114.229.343.457.343.686a3.523,3.523,0,0,1,.114,1.143V60.6h-1.142Zm3.883,0H118.1V54.2h1.142Zm-.571-8.112a.8.8,0,1,1,0-1.6c.228,0,.343.114.571.229a.829.829,0,0,1,0,1.143C119.125,52.6,118.9,52.6,118.668,52.6Zm5.026,2.971-.343-.343a1.651,1.651,0,0,0-.8-.229,1.224,1.224,0,0,0-.685.229.688.688,0,0,0,0,1.028,1.757,1.757,0,0,0,.685.457l.457.229a4.015,4.015,0,0,1,1.028.8,1.931,1.931,0,0,1,.343,1.143,1.637,1.637,0,0,1-.571,1.257,2.259,2.259,0,0,1-1.6.571,1.448,1.448,0,0,1-.685-.114c-.228-.114-.343-.114-.571-.229-.114-.114-.228-.114-.343-.229s-.228-.114-.228-.229l.571-.914.228.229.228.229a.42.42,0,0,0,.343.114c.114,0,.343.114.457.114a1.65,1.65,0,0,0,.8-.229c.228-.114.228-.343.228-.571a.687.687,0,0,0-.114-.457c0-.114-.114-.229-.228-.343s-.228-.229-.343-.229a.593.593,0,0,0-.457-.229l-.457-.229a3.259,3.259,0,0,1-.914-.8,1.93,1.93,0,0,1-.343-1.143,1.45,1.45,0,0,1,.114-.686,2.006,2.006,0,0,1,.457-.571c.228-.114.343-.229.571-.343a2.113,2.113,0,0,1,1.371,0,.593.593,0,0,1,.457.229c.114.114.228.114.343.229l.228.229Zm4.8-.457h-1.485v3.656a1.477,1.477,0,0,0,.228.914.872.872,0,0,0,.571.229.687.687,0,0,0,.457-.114.4.4,0,0,0,.228-.114l.114.914a.5.5,0,0,1-.343.114,1.448,1.448,0,0,1-.685.114,1.423,1.423,0,0,1-1.256-.457,2.664,2.664,0,0,1-.457-1.6V55h-.8v-.571l.8-.114.114-1.828h1.028v1.828h1.6Zm5.254,1.257v1.257h-3.312a3.084,3.084,0,0,0,.457,1.714,1.636,1.636,0,0,0,1.256.571,1.029,1.029,0,0,0,.571-.114c.114,0,.343-.114.457-.114.114-.114.228-.114.228-.229l.114-.114.457.8-.228.229c-.114.114-.228.229-.343.229-.114.114-.343.114-.571.229a1.693,1.693,0,0,1-.8.114,3.378,3.378,0,0,1-1.142-.229,1.536,1.536,0,0,1-.8-.686,2.679,2.679,0,0,1-.571-1.143,5.957,5.957,0,0,1-.228-1.6,5.791,5.791,0,0,1,.228-1.485,2.209,2.209,0,0,1,.571-1.028,2.049,2.049,0,0,1,.8-.571,2.687,2.687,0,0,1,.914-.229,2.171,2.171,0,0,1,1.485.571A2.9,2.9,0,0,1,133.745,56.37ZM131.689,55a1.039,1.039,0,0,0-.914.457,3.855,3.855,0,0,0-.457,1.371h2.4V56.37a2.282,2.282,0,0,0-.228-1.028A.889.889,0,0,0,131.689,55Zm6.4.229a.354.354,0,0,1-.228-.114c-.114-.114-.228,0-.343,0a1.65,1.65,0,0,0-.8.229,2.006,2.006,0,0,0-.457.571v4.8h-1.142V54.2h1.028v.914h0c0-.114.114-.229.228-.343s.114-.229.228-.343.228-.114.343-.229a4.945,4.945,0,0,1,.571-.114h.343c.114,0,.114,0,.228.114Zm2.284,5.484h-1.142V54.2h1.142ZM139.8,52.6a.8.8,0,1,1,0-1.6c.228,0,.343.114.571.229a.829.829,0,0,1,0,1.143A.629.629,0,0,1,139.8,52.6Zm6.739,8.112H145.51v-.686h0l-.228.229-.343.343a.866.866,0,0,1-.457.229c-.114,0-.457.114-.685.114a1.693,1.693,0,0,1-.8-.114,1.14,1.14,0,0,1-.571-.457c-.114-.229-.343-.457-.343-.686a3.523,3.523,0,0,1-.114-1.143V54.313h1.142v4.227a2.459,2.459,0,0,0,.228,1.143,1.037,1.037,0,0,0,.8.343,1.65,1.65,0,0,0,.8-.229c.228-.114.343-.343.571-.457V54.313h1.142v6.4Zm5.14,0V56.484a2.459,2.459,0,0,0-.228-1.143.889.889,0,0,0-.8-.343c-.228,0-.343,0-.457.114-.114,0-.228.114-.343.114-.114.114-.228.114-.228.229l-.228.229v5.027h-1.142V54.2h1.028v.686h0c0-.114.114-.114.228-.229l.343-.343a.866.866,0,0,1,.457-.229,4.945,4.945,0,0,1,.571-.114,1.7,1.7,0,0,1,1.6.914c.114-.114.114-.229.228-.343s.228-.229.343-.229c.114-.114.343-.114.457-.229.228,0,.343-.114.571-.114,1.371,0,1.942.8,1.942,2.285V60.6h-1.142V56.37a2.459,2.459,0,0,0-.228-1.143,1.037,1.037,0,0,0-.8-.343,1.65,1.65,0,0,0-.8.229c-.228.114-.343.343-.457.457V60.6h-.914ZM66.012,68.824H64.642v5.6H63.5v-5.6h-.8v-.686l.8-.114V66.767a2.228,2.228,0,0,1,.114-.914,1.373,1.373,0,0,1,.914-.914,1.448,1.448,0,0,1,.685-.114.856.856,0,0,1,.571.114.42.42,0,0,0,.343.114l-.228.914a.4.4,0,0,0-.228-.114c-.114,0-.228-.114-.343-.114a.872.872,0,0,0-.571.229,1.477,1.477,0,0,0-.228.914v1.143h1.485Zm5.711,5.6H70.7v-.686h0l-.228.229-.343.343a.866.866,0,0,1-.457.229c-.114,0-.457.114-.685.114a1.693,1.693,0,0,1-.8-.114,1.14,1.14,0,0,1-.571-.457c-.114-.229-.343-.457-.343-.686a3.523,3.523,0,0,1-.114-1.143V68.024H68.3v4.227a2.459,2.459,0,0,0,.228,1.143,1.037,1.037,0,0,0,.8.343,1.65,1.65,0,0,0,.8-.229c.228-.114.343-.343.571-.457V68.024h1.142v6.4Zm-2.741-8.341a.648.648,0,0,1-1.142.457.866.866,0,0,1-.228-.457.648.648,0,0,1,1.142-.457C68.982,65.624,68.982,65.853,68.982,66.081Zm2.17,0a.648.648,0,0,1-1.142.457.866.866,0,0,1-.228-.457.648.648,0,0,1,1.142-.457C71.038,65.624,71.152,65.853,71.152,66.081Zm5.14,2.856a.354.354,0,0,1-.228-.114h-.343a1.65,1.65,0,0,0-.8.229,2.006,2.006,0,0,0-.457.571v4.8H73.322V67.91H74.35v.914h0c0-.114.114-.229.228-.343s.114-.229.228-.343.228-.114.343-.229a4.945,4.945,0,0,1,.571-.114h.343c.114,0,.114,0,.228.114Zm13.021-3.885-2.284,9.369H86L84.63,68.481a5.029,5.029,0,0,1-.228-1.143,6.443,6.443,0,0,0-.114-.8h0a2.231,2.231,0,0,1-.114.8c-.114.343-.114.686-.228,1.143L82.46,74.422H81.432l-2.284-9.369H80.4l1.142,5.713c.114.457.114.8.228,1.257a2.84,2.84,0,0,1,.114.914h0A3.217,3.217,0,0,1,82,72.023a4.108,4.108,0,0,0,.228-1.257L83.6,65.053h1.142l1.371,5.713a4.86,4.86,0,0,1,.228,1.257,2.84,2.84,0,0,1,.114.914h0a2.84,2.84,0,0,1,.114-.914c.114-.457.114-.8.228-1.257l1.142-5.713Zm2.17,9.369H90.341V67.91h1.142Zm-.571-8.112a.8.8,0,1,1,0-1.6c.228,0,.343.114.571.229s.228.343.228.571a.781.781,0,0,1-.8.8Zm5.026,2.628a.354.354,0,0,1-.228-.114h-.343a1.65,1.65,0,0,0-.8.229,2.006,2.006,0,0,0-.457.571v4.8H92.968V67.91H94v.914h0c0-.114.114-.229.228-.343s.114-.229.228-.343.228-.114.343-.229a4.946,4.946,0,0,1,.571-.114h.343c.114,0,.114,0,.228.114Zm3.883-.114H98.451V72.48a1.477,1.477,0,0,0,.228.914.872.872,0,0,0,.571.229.687.687,0,0,0,.457-.114.4.4,0,0,0,.228-.114l.114.914a.5.5,0,0,1-.343.114,1.448,1.448,0,0,1-.685.114,1.423,1.423,0,0,1-1.256-.457c-.343-.229-.457-.8-.457-1.485v-3.77h-.8v-.686l.8-.114.114-1.828h1.028v1.828h1.6Zm4.112.457-.343-.343a1.651,1.651,0,0,0-.8-.228,1.224,1.224,0,0,0-.685.228.688.688,0,0,0,0,1.028,1.757,1.757,0,0,0,.685.457l.457.229a4.014,4.014,0,0,1,1.028.8,1.931,1.931,0,0,1,.343,1.143,1.637,1.637,0,0,1-.571,1.257,2.259,2.259,0,0,1-1.6.571,1.448,1.448,0,0,1-.685-.114c-.228,0-.343-.114-.571-.229-.114-.114-.228-.114-.343-.229s-.228-.114-.228-.229l.571-.914.228.229.228.229a.42.42,0,0,0,.343.114c.114,0,.343.114.457.114a1.65,1.65,0,0,0,.8-.229c.228-.114.228-.343.228-.571a.687.687,0,0,0-.114-.457c0-.114-.114-.229-.228-.343s-.228-.229-.343-.229a.593.593,0,0,0-.457-.229l-.457-.229a3.259,3.259,0,0,1-.914-.8,1.931,1.931,0,0,1-.343-1.143,1.45,1.45,0,0,1,.114-.686,2.006,2.006,0,0,1,.457-.571c.228-.114.343-.229.571-.343a2.112,2.112,0,0,1,1.371,0,.593.593,0,0,1,.457.228c.457.343.571.343.571.457l.228.229Zm5.6-.114-.114-.114c-.114,0-.114-.114-.228-.114s-.228-.114-.343-.114-.228-.114-.457-.114a1.448,1.448,0,0,0-.685.114,2.005,2.005,0,0,0-.571.457l-.343.686a3.523,3.523,0,0,0-.114,1.143,4.285,4.285,0,0,0,.114,1.257,5.57,5.57,0,0,0,.343.8c.114.229.343.343.457.457a1.448,1.448,0,0,0,.685.114,1.65,1.65,0,0,0,.8-.229,1.414,1.414,0,0,0,.343-.229l.457.8-.228.229c-.114.114-.228.114-.343.229s-.343.114-.457.229c-.228,0-.457.114-.685.114a3.334,3.334,0,0,1-1.028-.229,2.049,2.049,0,0,1-.8-.571,2.209,2.209,0,0,1-.571-1.028,5.715,5.715,0,0,1,0-3.2,1.664,1.664,0,0,1,.685-1.028,2.487,2.487,0,0,1,.914-.571,3.334,3.334,0,0,1,1.028-.229,1.448,1.448,0,0,1,.685.114c.228,0,.343.114.457.114.114.114.228.114.343.229l.228.229Zm5.14,5.256V70.195a2.459,2.459,0,0,0-.228-1.143,1.037,1.037,0,0,0-.8-.343,1.651,1.651,0,0,0-.8.228c-.228.114-.343.343-.571.457v5.027h-1.142v-9.6l1.142-.114V68.6h0a.4.4,0,0,0,.114-.229c.114-.114.228-.229.343-.229.114-.114.343-.114.457-.229a1.448,1.448,0,0,1,.685-.114,1.891,1.891,0,0,1,1.371.571,2.7,2.7,0,0,1,.457,1.828v4.227H114.67Zm2.4-1.6a2.153,2.153,0,0,1,.228-.914,1.377,1.377,0,0,1,.571-.571,7.869,7.869,0,0,1,.914-.343,3.161,3.161,0,0,1,1.028-.114h.343v-.571a1.517,1.517,0,0,0-.343-1.143,1.037,1.037,0,0,0-.8-.343,1.651,1.651,0,0,0-.8.228c-.228.114-.343.229-.571.343l-.457-.686.228-.229a.593.593,0,0,1,.457-.229c.114-.114.343-.114.571-.229.228,0,.457-.114.685-.114a1.973,1.973,0,0,1,1.485.571,2.483,2.483,0,0,1,.571,1.828V74.65h-1.028v-.686h0a.4.4,0,0,1-.114.228c-.114.114-.114.229-.228.229-.114.114-.228.114-.343.228a.856.856,0,0,1-.571.114,1.448,1.448,0,0,1-.685-.114c-.228-.114-.343-.228-.571-.343a2.5,2.5,0,0,1-.343-.571A1.728,1.728,0,0,1,117.069,72.822Zm1.942.914a.687.687,0,0,0,.457-.114c.114,0,.228-.114.343-.114l.228-.229c.114-.114.114-.114.114-.229V71.566h-.343a2.457,2.457,0,0,0-1.142.229.962.962,0,0,0-.457.8,1.652,1.652,0,0,0,.228.8A.628.628,0,0,0,119.011,73.736Zm6.625-4.913h-1.371v5.6h-1.142v-5.6h-.8v-.686l.8-.114V66.767a2.228,2.228,0,0,1,.114-.914,1.373,1.373,0,0,1,.914-.914,1.448,1.448,0,0,1,.685-.114.856.856,0,0,1,.571.114.42.42,0,0,0,.343.114l-.228.914a.4.4,0,0,0-.228-.114c-.114,0-.228-.114-.343-.114a.872.872,0,0,0-.571.229,1.477,1.477,0,0,0-.228.914v1.143h1.485Zm3.883,0h-1.371V72.48a1.477,1.477,0,0,0,.228.914.872.872,0,0,0,.571.229.687.687,0,0,0,.457-.114.4.4,0,0,0,.228-.114l.114.914a.5.5,0,0,1-.343.114,1.448,1.448,0,0,1-.685.114,1.423,1.423,0,0,1-1.256-.457,2.664,2.664,0,0,1-.457-1.6v-3.77h-.8v-.571l.8-.114.114-1.828h1.028v1.828h1.6ZM67.84,88.132H66.812v-.686h0l-.228.228-.343.343a.866.866,0,0,1-.457.229c-.114,0-.457.114-.685.114a1.693,1.693,0,0,1-.8-.114,1.14,1.14,0,0,1-.571-.457c-.114-.229-.343-.457-.343-.686a3.523,3.523,0,0,1-.114-1.143V81.734h1.142v4.227a2.459,2.459,0,0,0,.228,1.143,1.037,1.037,0,0,0,.8.343,1.65,1.65,0,0,0,.8-.229c.228-.114.343-.343.571-.457V81.734h1.142v6.4Zm5.254,0V83.9a2.459,2.459,0,0,0-.228-1.143,1.037,1.037,0,0,0-.8-.343,1.65,1.65,0,0,0-.8.229c-.228.114-.343.343-.571.457v5.027H69.553V81.62h1.028v.686h0l.228-.229.343-.343a.872.872,0,0,1,.571-.229c.228,0,.457-.114.685-.114a1.693,1.693,0,0,1,.8.114,1.14,1.14,0,0,1,.571.457c.114.229.343.457.343.686a3.523,3.523,0,0,1,.114,1.143v4.227H73.094Zm2.513-3.085a6.918,6.918,0,0,1,.228-1.714,2.324,2.324,0,0,1,.685-1.028,2.487,2.487,0,0,1,.914-.571,3.162,3.162,0,0,1,1.028-.114h.571c.114,0,.228.114.343.114V78.649l1.142-.114v9.712H79.49v-.686h0a.4.4,0,0,0-.114.229c0,.114-.228.229-.343.229a.593.593,0,0,1-.457.229,1.448,1.448,0,0,1-.685.114,2.687,2.687,0,0,1-.914-.229,1.679,1.679,0,0,1-.685-.571,2.153,2.153,0,0,1-.457-1.028A3.137,3.137,0,0,1,75.607,85.048Zm2.513,2.285c.228,0,.343,0,.457-.114.114,0,.228-.114.343-.114.114-.114.228-.114.228-.229s.114-.114.114-.229v-4a.42.42,0,0,0-.343-.114c-.114,0-.343-.114-.457-.114a1.448,1.448,0,0,0-.685.114,1.14,1.14,0,0,0-.571.457,1.706,1.706,0,0,0-.343.8,5.772,5.772,0,0,0,0,2.285,1.86,1.86,0,0,0,.343.686c.114.229.343.343.457.457A.686.686,0,0,0,78.12,87.333Zm11.65-7.655H86.458v3.313h3.084V83.9H86.458v3.313h3.655L90,88.247H85.2V78.878H89.77Zm5.254,8.455V83.9a2.459,2.459,0,0,0-.228-1.143,1.037,1.037,0,0,0-.8-.343,1.65,1.65,0,0,0-.8.229c-.228.114-.343.343-.571.457v5.027H91.484V81.62h1.028v.686h0l.228-.229.343-.343a.872.872,0,0,1,.571-.229c.228,0,.457-.114.685-.114a1.693,1.693,0,0,1,.8.114,1.14,1.14,0,0,1,.571.457c.114.229.343.457.343.686a3.523,3.523,0,0,1,.114,1.143v4.227H95.024Zm6.967-4.342v1.257H98.679a3.084,3.084,0,0,0,.457,1.714,1.636,1.636,0,0,0,1.256.571,1.029,1.029,0,0,0,.571-.114c.114,0,.343-.114.457-.114.114-.114.228-.114.228-.229l.114-.114.457.8-.228.229c-.114.114-.228.229-.343.229-.114.114-.343.114-.571.228a1.693,1.693,0,0,1-.8.114,3.378,3.378,0,0,1-1.142-.229,1.536,1.536,0,0,1-.8-.686,2.679,2.679,0,0,1-.571-1.143,5.957,5.957,0,0,1-.228-1.6,5.791,5.791,0,0,1,.228-1.485,2.209,2.209,0,0,1,.571-1.028,2.049,2.049,0,0,1,.8-.571,2.688,2.688,0,0,1,.914-.229,2.171,2.171,0,0,1,1.485.571A4.306,4.306,0,0,1,101.992,83.791ZM99.936,82.42a1.039,1.039,0,0,0-.914.457,3.855,3.855,0,0,0-.457,1.371h2.4v-.457a2.282,2.282,0,0,0-.228-1.028A1.037,1.037,0,0,0,99.936,82.42Zm6.4.229a.354.354,0,0,1-.228-.114h-.343a1.65,1.65,0,0,0-.8.229,2.006,2.006,0,0,0-.457.571v4.8h-1.142V81.62h1.028v.914h0c0-.114.114-.229.228-.343s.114-.229.228-.343.228-.114.343-.229a4.946,4.946,0,0,1,.571-.114h.343c.114,0,.114,0,.228.114Zm5.6-.114h-.8a1.931,1.931,0,0,1,.343,1.143,2.228,2.228,0,0,1-.114.914,2.1,2.1,0,0,1-1.142,1.143,2.226,2.226,0,0,1-.914.114h-.457c-.114,0-.228.114-.343.229s-.228.229-.228.343a.42.42,0,0,0,.114.343c.114.114.228.114.457.114h.8a1.693,1.693,0,0,1,.8.114c.228.114.457.114.685.343a1.141,1.141,0,0,1,.457.571,1.7,1.7,0,0,1,.114.8,2.367,2.367,0,0,1-1.942,2.171,4.105,4.105,0,0,1-1.256.228,2.233,2.233,0,0,1-1.6-.457,1.637,1.637,0,0,1-.571-1.257,1.449,1.449,0,0,1,.114-.686,1.577,1.577,0,0,1,.343-.457l.343-.343c.114-.114.228-.114.343-.229h0a1.187,1.187,0,0,1-.457-.914c0-.229,0-.343.114-.457s.114-.229.228-.343.228-.114.228-.229c.114,0,.114-.114.228-.114h0a1.536,1.536,0,0,1-.8-.686,2.3,2.3,0,0,1-.343-1.257,2.153,2.153,0,0,1,.228-.914,2.1,2.1,0,0,1,1.142-1.143,2.226,2.226,0,0,1,.914-.114,2.514,2.514,0,0,1,.914.114h1.942Zm-2.97,5.484H108.5c-.114,0-.114.114-.228.114l-.228.229a.42.42,0,0,0-.114.343c0,.114-.114.229-.114.457,0,.686.343,1.028,1.142,1.028a2.591,2.591,0,0,0,1.485-.343,1.039,1.039,0,0,0,.457-.914.691.691,0,0,0-.343-.686,1.65,1.65,0,0,0-.8-.229Zm1.485-4.342a1.4,1.4,0,0,0-.343-1.028,1.1,1.1,0,0,0-1.6,0,1.714,1.714,0,0,0,0,2.057,1.1,1.1,0,0,0,1.6,0A1.4,1.4,0,0,0,110.444,83.676Zm3.883,4.456h-1.142V81.62h1.142Zm-.571-8.112a.8.8,0,1,1,0-1.6c.228,0,.343.114.571.229a.829.829,0,0,1,0,1.143C114.213,80.02,113.985,80.02,113.757,80.02Zm6.4,3.77v1.257H116.84a3.084,3.084,0,0,0,.457,1.714,1.636,1.636,0,0,0,1.256.571,1.029,1.029,0,0,0,.571-.114c.114,0,.343-.114.457-.114.114-.114.228-.114.228-.229l.114-.114.457.8-.228.229c-.114.114-.228.229-.343.229-.114.114-.343.114-.571.228a1.693,1.693,0,0,1-.8.114,3.378,3.378,0,0,1-1.142-.229,1.536,1.536,0,0,1-.8-.686,2.679,2.679,0,0,1-.571-1.143,5.957,5.957,0,0,1-.228-1.6,5.79,5.79,0,0,1,.228-1.485,2.209,2.209,0,0,1,.571-1.028,2.049,2.049,0,0,1,.8-.571,2.688,2.688,0,0,1,.914-.229,2.171,2.171,0,0,1,1.485.571A3.115,3.115,0,0,1,120.153,83.791ZM118.1,82.42a1.039,1.039,0,0,0-.914.457,3.855,3.855,0,0,0-.457,1.371h2.4v-.457a2.282,2.282,0,0,0-.228-1.028A.889.889,0,0,0,118.1,82.42Z" transform="translate(-17.354 -50.429)"/></g></g></svg>